<?xml version="1.0" encoding="UTF-8" standalone="no"?>
<!-- Created with Inkscape (http://www.inkscape.org/) -->

<svg
   version="1.1"
   id="svg2"
   xml:space="preserve"
   width="2560"
   height="1440"
   viewBox="0 0 2560 1440"
   xmlns="http://www.w3.org/2000/svg"
   xmlns:svg="http://www.w3.org/2000/svg"><defs
     id="defs6"><clipPath
       clipPathUnits="userSpaceOnUse"
       id="clipPath18"><path
         d="M 0,0 H 1920 V 1080 H 0 Z"
         id="path16" /></clipPath><clipPath
       clipPathUnits="userSpaceOnUse"
       id="clipPath28"><path
         d="m 64.34548,669.359 0.01471,-116.9599 52.46771,-0.003 0.1365,25.6498 -52.61892,91.3129 z"
         id="path26" /></clipPath><clipPath
       clipPathUnits="userSpaceOnUse"
       id="clipPath34"><path
         d="m 64.34548,669.359 0.01471,-116.9599 52.46771,-0.003 0.1365,25.6498 -52.61892,91.3129 z"
         id="path32" /></clipPath><linearGradient
       x1="0"
       y1="0"
       x2="100"
       y2="0"
       gradientUnits="userSpaceOnUse"
       gradientTransform="matrix(0.5461895,0,0,-1.189627,63.34548,610.8777)"
       spreadMethod="pad"
       id="linearGradient48"><stop
         style="stop-opacity:1;stop-color:#56c1ff"
         offset="0"
         id="stop44" /><stop
         style="stop-opacity:1;stop-color:#0171bc"
         offset="1"
         id="stop46" /></linearGradient><clipPath
       clipPathUnits="userSpaceOnUse"
       id="clipPath58"><path
         d="m 65.29812,748.5209 97.26648,-175.5282 31.0725,0.103 97.4535,175.7849 -45.1163,-0.2465 -67.1541,-113.5883 -67.4215,113.4106 z"
         id="path56" /></clipPath><clipPath
       clipPathUnits="userSpaceOnUse"
       id="clipPath64"><path
         d="m 65.29812,748.5209 97.26648,-175.5282 31.0725,0.103 97.4535,175.7849 -45.1163,-0.2465 -67.1541,-113.5883 -67.4215,113.4106 z"
         id="path62" /></clipPath><linearGradient
       x1="0"
       y1="0"
       x2="100"
       y2="0"
       gradientUnits="userSpaceOnUse"
       gradientTransform="matrix(2.277925,0,0,-1.778879,64.29812,660.9367)"
       spreadMethod="pad"
       id="linearGradient78"><stop
         style="stop-opacity:1;stop-color:#56c1ff"
         offset="0"
         id="stop74" /><stop
         style="stop-opacity:1;stop-color:#0171bc"
         offset="1"
         id="stop76" /></linearGradient><clipPath
       clipPathUnits="userSpaceOnUse"
       id="clipPath88"><path
         d="m 307.454,748.5589 57.4954,0.0428 45.4189,-77.6992 45.7073,77.5866 52.896,-0.0129 -74.8787,-124.5549 -0.4879,-72.024 -52.779,0.1227 0.786,73.1667 z"
         id="path86" /></clipPath><clipPath
       clipPathUnits="userSpaceOnUse"
       id="clipPath94"><path
         d="m 307.454,748.5589 57.4954,0.0428 45.4189,-77.6992 45.7073,77.5866 52.896,-0.0129 -74.8787,-124.5549 -0.4879,-72.024 -52.779,0.1227 0.786,73.1667 z"
         id="path92" /></clipPath><linearGradient
       x1="0"
       y1="0"
       x2="100"
       y2="0"
       gradientUnits="userSpaceOnUse"
       gradientTransform="matrix(2.035177,0,0,-1.987044,306.454,650.2495)"
       spreadMethod="pad"
       id="linearGradient108"><stop
         style="stop-opacity:1;stop-color:#56c1ff"
         offset="0"
         id="stop104" /><stop
         style="stop-opacity:1;stop-color:#0171bc"
         offset="1"
         id="stop106" /></linearGradient><clipPath
       clipPathUnits="userSpaceOnUse"
       id="clipPath118"><path
         d="m 291.8274,669.8398 0.1153,-117.4478 -52.0656,-0.003 -0.1665,26.1077 52.1168,91.3429 z"
         id="path116" /></clipPath><clipPath
       clipPathUnits="userSpaceOnUse"
       id="clipPath124"><path
         d="m 291.8274,669.8398 0.1153,-117.4478 -52.0656,-0.003 -0.1665,26.1077 52.1168,91.3429 z"
         id="path122" /></clipPath><linearGradient
       x1="0"
       y1="0"
       x2="100"
       y2="0"
       gradientUnits="userSpaceOnUse"
       gradientTransform="matrix(-0.5423212,0,0,-1.194506,292.9427,611.1145)"
       spreadMethod="pad"
       id="linearGradient138"><stop
         style="stop-opacity:1;stop-color:#56c1ff"
         offset="0"
         id="stop134" /><stop
         style="stop-opacity:1;stop-color:#0171bc"
         offset="1"
         id="stop136" /></linearGradient><clipPath
       clipPathUnits="userSpaceOnUse"
       id="clipPath148"><path
         d="m 699.0124,716.9931 -32.6181,-31.2229 c -9.4709,9.1572 -21.16,15.5217 -33.7995,18.5692 -5.4192,1.3066 -10.965,1.9876 -16.5337,2.2241 -5.6115,0.2383 -11.2982,0.0326 -16.856,-1.3355 -6.3096,-1.5532 -12.1722,-4.5505 -17.1265,-8.755 -14.0893,-11.7432 -21.9435,-29.3512 -21.2682,-47.6803 0.5029,-13.6484 5.7763,-26.6883 14.9022,-36.8494 7.6727,-7.1477 16.9466,-12.3525 27.0448,-15.1785 15.2245,-4.2607 31.4037,-2.9298 45.6605,3.6358 l 0.1699,10.5569 -0.2597,43.3205 47.7003,0.1099 -1.214,-81.3014 c -22.8051,-14.0167 -49.0694,-21.3909 -75.8375,-21.2929 -26.4013,0.0967 -52.2662,7.4611 -74.7589,21.2858 -23.7194,18.7628 -37.5849,47.3205 -37.6589,77.5637 -0.0779,31.7753 15.0218,61.6777 40.6387,80.4781 21.6169,12.8 46.4637,19.1011 71.5679,18.1495 27.3231,-1.0356 53.6381,-10.5908 75.26,-27.3275 z"
         id="path146" /></clipPath><clipPath
       clipPathUnits="userSpaceOnUse"
       id="clipPath154"><path
         d="m 699.0124,716.9931 -32.6181,-31.2229 c -9.4709,9.1572 -21.16,15.5217 -33.7995,18.5692 -5.4192,1.3066 -10.965,1.9876 -16.5337,2.2241 -5.6115,0.2383 -11.2982,0.0326 -16.856,-1.3355 -6.3096,-1.5532 -12.1722,-4.5505 -17.1265,-8.755 -14.0893,-11.7432 -21.9435,-29.3512 -21.2682,-47.6803 0.5029,-13.6484 5.7763,-26.6883 14.9022,-36.8494 7.6727,-7.1477 16.9466,-12.3525 27.0448,-15.1785 15.2245,-4.2607 31.4037,-2.9298 45.6605,3.6358 l 0.1699,10.5569 -0.2597,43.3205 47.7003,0.1099 -1.214,-81.3014 c -22.8051,-14.0167 -49.0694,-21.3909 -75.8375,-21.2929 -26.4013,0.0967 -52.2662,7.4611 -74.7589,21.2858 -23.7194,18.7628 -37.5849,47.3205 -37.6589,77.5637 -0.0779,31.7753 15.0218,61.6777 40.6387,80.4781 21.6169,12.8 46.4637,19.1011 71.5679,18.1495 27.3231,-1.0356 53.6381,-10.5908 75.26,-27.3275 z"
         id="path152" /></clipPath><linearGradient
       x1="0"
       y1="0"
       x2="100"
       y2="0"
       gradientUnits="userSpaceOnUse"
       gradientTransform="matrix(1.944536,0,0,-1.99572,505.5588,650.5786)"
       spreadMethod="pad"
       id="linearGradient168"><stop
         style="stop-opacity:1;stop-color:#56c1ff"
         offset="0"
         id="stop164" /><stop
         style="stop-opacity:1;stop-color:#0171bc"
         offset="1"
         id="stop166" /></linearGradient><clipPath
       clipPathUnits="userSpaceOnUse"
       id="clipPath178"><path
         d="m 784.9621,748.7443 -1.2783,-153.16 93.9626,-0.4447 -0.1759,-43.1109 -147.9599,0.1028 0.4112,196.5789 z"
         id="path176" /></clipPath><clipPath
       clipPathUnits="userSpaceOnUse"
       id="clipPath184"><path
         d="m 784.9621,748.7443 -1.2783,-153.16 93.9626,-0.4447 -0.1759,-43.1109 -147.9599,0.1028 0.4112,196.5789 z"
         id="path182" /></clipPath><linearGradient
       x1="0"
       y1="0"
       x2="100"
       y2="0"
       gradientUnits="userSpaceOnUse"
       gradientTransform="matrix(1.501358,0,0,-1.987155,728.5106,650.3865)"
       spreadMethod="pad"
       id="linearGradient198"><stop
         style="stop-opacity:1;stop-color:#56c1ff"
         offset="0"
         id="stop194" /><stop
         style="stop-opacity:1;stop-color:#0171bc"
         offset="1"
         id="stop196" /></linearGradient><clipPath
       clipPathUnits="userSpaceOnUse"
       id="clipPath208"><path
         d="m 952.4693,749.2708 0.0308,-115.4372 c -1.2104,-20.7739 15.2841,-38.2972 36.0932,-38.3444 20.5617,-0.0466 37.0247,17.0372 36.2177,37.5829 l 0.01,116.1011 54.017,0.0528 -0.262,-125.1599 c 0.131,-14.8885 -4.809,-29.3783 -14.006,-41.0868 -18.258,-23.2419 -48.503,-31.713 -78.2496,-31.1066 -29.4163,0.5996 -59.0071,10.1363 -75.9317,33.9479 -8.0978,11.3929 -12.2218,25.1337 -11.736,39.1028 l 0.4899,124.3474 h 53.3277 z"
         id="path206" /></clipPath><clipPath
       clipPathUnits="userSpaceOnUse"
       id="clipPath214"><path
         d="m 952.4693,749.2708 0.0308,-115.4372 c -1.2104,-20.7739 15.2841,-38.2972 36.0932,-38.3444 20.5617,-0.0466 37.0247,17.0372 36.2177,37.5829 l 0.01,116.1011 54.017,0.0528 -0.262,-125.1599 c 0.131,-14.8885 -4.809,-29.3783 -14.006,-41.0868 -18.258,-23.2419 -48.503,-31.713 -78.2496,-31.1066 -29.4163,0.5996 -59.0071,10.1363 -75.9317,33.9479 -8.0978,11.3929 -12.2218,25.1337 -11.736,39.1028 l 0.4899,124.3474 h 53.3277 z"
         id="path212" /></clipPath><linearGradient
       x1="0"
       y1="0"
       x2="100"
       y2="0"
       gradientUnits="userSpaceOnUse"
       gradientTransform="matrix(1.822234,0,0,-1.994283,897.6132,650.5566)"
       spreadMethod="pad"
       id="linearGradient228"><stop
         style="stop-opacity:1;stop-color:#56c1ff"
         offset="0"
         id="stop224" /><stop
         style="stop-opacity:1;stop-color:#0171bc"
         offset="1"
         id="stop226" /></linearGradient><clipPath
       clipPathUnits="userSpaceOnUse"
       id="clipPath238"><path
         d="m 1297.383,717.5251 -34.207,-32.5554 c -11.873,11.3835 -25.941,17.4235 -40.216,18.8162 -14.433,1.408 -29.422,-1.9104 -41.262,-11.0423 -12.4,-9.5644 -19.543,-25.0716 -19.199,-42.7135 0.549,-28.2043 19.127,-48.1842 41.778,-54.0889 10.417,-2.7156 21.529,-2.3645 31.905,1.1701 10.248,3.4905 19.777,10.0811 27.394,20.1145 l 33.718,-33.1402 c -21.275,-20.6229 -49.508,-32.5443 -79.127,-33.3565 -58.329,-1.5994 -108.716,39.8003 -109.917,96.0323 -0.735,34.4405 14.813,63.8095 39.204,82.1033 17.267,12.951 38.012,20.1379 59.155,21.5903 31.84,2.1872 64.577,-8.3836 90.774,-32.9299 z"
         id="path236" /></clipPath><clipPath
       clipPathUnits="userSpaceOnUse"
       id="clipPath244"><path
         d="m 1297.383,717.5251 -34.207,-32.5554 c -11.873,11.3835 -25.941,17.4235 -40.216,18.8162 -14.433,1.408 -29.422,-1.9104 -41.262,-11.0423 -12.4,-9.5644 -19.543,-25.0716 -19.199,-42.7135 0.549,-28.2043 19.127,-48.1842 41.778,-54.0889 10.417,-2.7156 21.529,-2.3645 31.905,1.1701 10.248,3.4905 19.777,10.0811 27.394,20.1145 l 33.718,-33.1402 c -21.275,-20.6229 -49.508,-32.5443 -79.127,-33.3565 -58.329,-1.5994 -108.716,39.8003 -109.917,96.0323 -0.735,34.4405 14.813,63.8095 39.204,82.1033 17.267,12.951 38.012,20.1379 59.155,21.5903 31.84,2.1872 64.577,-8.3836 90.774,-32.9299 z"
         id="path242" /></clipPath><linearGradient
       x1="0"
       y1="0"
       x2="100"
       y2="0"
       gradientUnits="userSpaceOnUse"
       gradientTransform="matrix(1.911584,0,0,-2.020511,1107.225,650.7099)"
       spreadMethod="pad"
       id="linearGradient258"><stop
         style="stop-opacity:1;stop-color:#56c1ff"
         offset="0"
         id="stop254" /><stop
         style="stop-opacity:1;stop-color:#0171bc"
         offset="1"
         id="stop256" /></linearGradient><clipPath
       clipPathUnits="userSpaceOnUse"
       id="clipPath268"><path
         d="m 1352.197,719.2407 c -1.429,-5.932 -2.193,-12.0046 -2.277,-18.1055 -0.083,-5.9638 0.484,-11.9189 1.691,-17.76 1.813,-11.5393 6.721,-22.3712 14.201,-31.3435 8.298,-9.9542 19.391,-17.1915 31.844,-20.7766 9.13,2.6658 17.541,7.3541 24.611,13.7166 10.848,9.7639 18.055,22.9339 20.364,37.3498 1.599,5.9413 2.41,12.0668 2.413,18.2193 0,6.2389 -0.824,12.4503 -2.461,18.4707 -6.634,18.5872 -23.983,31.2077 -43.71,31.7969 -20.731,0.6192 -39.533,-12.0965 -46.676,-31.5677 z"
         id="path266" /></clipPath><clipPath
       clipPathUnits="userSpaceOnUse"
       id="clipPath274"><path
         d="m 1352.197,719.2407 c -1.429,-5.932 -2.193,-12.0046 -2.277,-18.1055 -0.083,-5.9638 0.484,-11.9189 1.691,-17.76 1.813,-11.5393 6.721,-22.3712 14.201,-31.3435 8.298,-9.9542 19.391,-17.1915 31.844,-20.7766 9.13,2.6658 17.541,7.3541 24.611,13.7166 10.848,9.7639 18.055,22.9339 20.364,37.3498 1.599,5.9413 2.41,12.0668 2.413,18.2193 0,6.2389 -0.824,12.4503 -2.461,18.4707 -6.634,18.5872 -23.983,31.2077 -43.71,31.7969 -20.731,0.6192 -39.533,-12.0965 -46.676,-31.5677 z"
         id="path272" /></clipPath><linearGradient
       x1="0"
       y1="0"
       x2="100"
       y2="0"
       gradientUnits="userSpaceOnUse"
       gradientTransform="matrix(0.9713185,0,0,-1.21575,1348.912,691.0426)"
       spreadMethod="pad"
       id="linearGradient288"><stop
         style="stop-opacity:1;stop-color:#56c1ff"
         offset="0"
         id="stop284" /><stop
         style="stop-opacity:1;stop-color:#0171bc"
         offset="1"
         id="stop286" /></linearGradient><clipPath
       clipPathUnits="userSpaceOnUse"
       id="clipPath298"><path
         d="m 1431.694,634.118 -35.547,-32.827 c -6.294,4.6572 -12.215,9.7996 -17.708,15.3801 -2.998,3.0461 -5.944,6.2901 -8.761,9.4606 -2.983,3.3575 -5.965,6.7104 -10.296,8.1135 -0.974,0.3157 -1.985,0.5086 -3.008,0.5649 -8.956,0.4928 -15.825,-7.834 -13.639,-16.533 5.382,-2.6964 9.927,-6.8084 13.147,-11.8942 2.331,-3.6801 3.908,-7.7859 4.64,-12.0797 0.676,-2.1033 1.169,-4.261 1.473,-6.4491 0.304,-2.188 0.419,-4.3979 0.351,-6.6059 -0.149,-4.9037 -1.19,-9.7393 -3.071,-14.2704 l -17.402,-0.1441 -0.014,8.6867 8.262,0.0314 c 1.794,5.8822 1.976,12.1411 0.47,18.1087 -1.584,6.273 -5.539,11.9666 -11.567,11.9878 -6.175,0.0218 -10.267,-5.9504 -11.926,-12.485 -1.446,-5.6914 -1.638,-11.6288 -0.564,-17.4018 l 7.532,-0.0628 -0.189,-8.7566 -13.128,-0.0799 c -1.932,0.8482 -3.515,2.3322 -4.485,4.205 -0.456,0.8789 -0.763,1.8234 -1.025,2.7778 -2.569,9.3754 -0.807,19.3013 3.793,27.8744 3.652,6.8075 8.973,12.5761 15.464,16.7649 2.751,2.4902 2.768,6.8058 0.037,9.3179 -2.78,2.557 -7.167,2.1243 -9.394,-0.9265 -8.148,-8.1789 -14.092,-17.6699 -17.906,-27.8628 -4.513,-12.0622 -6.314,-26.1872 1.467,-37.952 3.882,-5.87 9.999,-9.9224 16.918,-11.2082 l 141.336,0.2397 c 4.733,1.2394 9.02,3.7931 12.364,7.3642 7.802,8.3339 9.714,19.4161 8.475,30.2187 -1.241,10.8144 -5.506,21.7944 -13.183,30.6749 -2.435,2.8173 -5.159,5.3697 -8.105,7.6481 -1.378,1.0657 -2.806,2.0724 -4.364,2.8528 -1.318,0.6603 -2.799,1.1434 -4.169,0.62 -2.328,-0.8893 -2.954,-3.7697 -2.162,-6.326 0.734,-2.3693 2.393,-4.2869 4.221,-5.959 2.479,-2.2667 5.318,-4.168 7.36,-6.842 0.856,-1.1218 1.554,-2.3588 2.029,-3.6883 1.79,-5.0114 0.384,-10.5576 -3.25,-14.4733 -4.207,-4.5321 -10.654,-6.2252 -16.545,-4.3447 -7.134,1.8245 -11.669,8.824 -10.419,16.0808 0.917,5.3213 4.907,9.3958 7.278,14.2105 2.879,5.8462 2.98,12.9702 -1.857,16.9076 -3.878,3.1559 -9.54,2.7536 -12.933,-0.9187 z"
         id="path296" /></clipPath><clipPath
       clipPathUnits="userSpaceOnUse"
       id="clipPath304"><path
         d="m 1431.694,634.118 -35.547,-32.827 c -6.294,4.6572 -12.215,9.7996 -17.708,15.3801 -2.998,3.0461 -5.944,6.2901 -8.761,9.4606 -2.983,3.3575 -5.965,6.7104 -10.296,8.1135 -0.974,0.3157 -1.985,0.5086 -3.008,0.5649 -8.956,0.4928 -15.825,-7.834 -13.639,-16.533 5.382,-2.6964 9.927,-6.8084 13.147,-11.8942 2.331,-3.6801 3.908,-7.7859 4.64,-12.0797 0.676,-2.1033 1.169,-4.261 1.473,-6.4491 0.304,-2.188 0.419,-4.3979 0.351,-6.6059 -0.149,-4.9037 -1.19,-9.7393 -3.071,-14.2704 l -17.402,-0.1441 -0.014,8.6867 8.262,0.0314 c 1.794,5.8822 1.976,12.1411 0.47,18.1087 -1.584,6.273 -5.539,11.9666 -11.567,11.9878 -6.175,0.0218 -10.267,-5.9504 -11.926,-12.485 -1.446,-5.6914 -1.638,-11.6288 -0.564,-17.4018 l 7.532,-0.0628 -0.189,-8.7566 -13.128,-0.0799 c -1.932,0.8482 -3.515,2.3322 -4.485,4.205 -0.456,0.8789 -0.763,1.8234 -1.025,2.7778 -2.569,9.3754 -0.807,19.3013 3.793,27.8744 3.652,6.8075 8.973,12.5761 15.464,16.7649 2.751,2.4902 2.768,6.8058 0.037,9.3179 -2.78,2.557 -7.167,2.1243 -9.394,-0.9265 -8.148,-8.1789 -14.092,-17.6699 -17.906,-27.8628 -4.513,-12.0622 -6.314,-26.1872 1.467,-37.952 3.882,-5.87 9.999,-9.9224 16.918,-11.2082 l 141.336,0.2397 c 4.733,1.2394 9.02,3.7931 12.364,7.3642 7.802,8.3339 9.714,19.4161 8.475,30.2187 -1.241,10.8144 -5.506,21.7944 -13.183,30.6749 -2.435,2.8173 -5.159,5.3697 -8.105,7.6481 -1.378,1.0657 -2.806,2.0724 -4.364,2.8528 -1.318,0.6603 -2.799,1.1434 -4.169,0.62 -2.328,-0.8893 -2.954,-3.7697 -2.162,-6.326 0.734,-2.3693 2.393,-4.2869 4.221,-5.959 2.479,-2.2667 5.318,-4.168 7.36,-6.842 0.856,-1.1218 1.554,-2.3588 2.029,-3.6883 1.79,-5.0114 0.384,-10.5576 -3.25,-14.4733 -4.207,-4.5321 -10.654,-6.2252 -16.545,-4.3447 -7.134,1.8245 -11.669,8.824 -10.419,16.0808 0.917,5.3213 4.907,9.3958 7.278,14.2105 2.879,5.8462 2.98,12.9702 -1.857,16.9076 -3.878,3.1559 -9.54,2.7536 -12.933,-0.9187 z"
         id="path302" /></clipPath><linearGradient
       x1="0"
       y1="0"
       x2="100"
       y2="0"
       gradientUnits="userSpaceOnUse"
       gradientTransform="matrix(1.867845,0,0,-0.8930912,1302.355,593.5073)"
       spreadMethod="pad"
       id="linearGradient318"><stop
         style="stop-opacity:1;stop-color:#56c1ff"
         offset="0"
         id="stop314" /><stop
         style="stop-opacity:1;stop-color:#0171bc"
         offset="1"
         id="stop316" /></linearGradient><clipPath
       clipPathUnits="userSpaceOnUse"
       id="clipPath328"><path
         d="M 0,0 H 1920 V 1080 H 0 Z"
         id="path326" /></clipPath><clipPath
       clipPathUnits="userSpaceOnUse"
       id="clipPath338"><path
         d="m 1458.354,608.1743 c 2.376,-2.3765 2.376,-6.2295 0,-8.6059 -2.377,-2.3765 -6.23,-2.3765 -8.606,0 -2.377,2.3764 -2.377,6.2294 0,8.6059 2.376,2.3764 6.229,2.3764 8.606,0 z"
         id="path336" /></clipPath><clipPath
       clipPathUnits="userSpaceOnUse"
       id="clipPath344"><path
         d="m 1458.354,608.1743 c 2.376,-2.3765 2.376,-6.2295 0,-8.6059 -2.377,-2.3765 -6.23,-2.3765 -8.606,0 -2.377,2.3764 -2.377,6.2294 0,8.6059 2.376,2.3764 6.229,2.3764 8.606,0 z"
         id="path342" /></clipPath><linearGradient
       x1="0"
       y1="0"
       x2="100"
       y2="0"
       gradientUnits="userSpaceOnUse"
       gradientTransform="matrix(0.1417059,0,0,-0.1417059,1446.966,603.8713)"
       spreadMethod="pad"
       id="linearGradient358"><stop
         style="stop-opacity:1;stop-color:#56c1ff"
         offset="0"
         id="stop354" /><stop
         style="stop-opacity:1;stop-color:#0171bc"
         offset="1"
         id="stop356" /></linearGradient><clipPath
       clipPathUnits="userSpaceOnUse"
       id="clipPath368"><path
         d="m 1665.619,735.2041 -13.576,-38.5778 c -6.165,2.4765 -12.436,4.6677 -18.806,6.5566 -13.309,3.947 -27.549,6.1945 -41.011,6.3789 -6.25,0.0856 -12.355,-0.3602 -17.731,-3.745 -7.478,-4.7083 -10.829,-14.0163 -6.824,-21.6482 3.631,-6.9218 11.794,-9.2125 19.449,-11.0391 12.304,-2.936 24.573,-6.028 36.942,-8.6792 9.572,-2.0517 19.189,-3.8546 27.649,-8.9524 17.674,-10.6505 25.168,-30.4621 22.176,-51.417 -2.363,-16.5488 -11.407,-31.424 -25.005,-41.1463 -21.781,-10.4891 -45.865,-15.2883 -70.004,-13.9494 -24.82,1.3767 -48.855,9.1926 -69.738,22.6784 2.694,6.3883 5.377,12.7815 8.048,19.1795 2.844,6.8117 5.674,13.6289 8.492,20.4517 10.953,-7.7154 23.063,-13.5658 35.919,-17.3387 12.63,-3.7067 26.249,-4.4599 38.315,-3.5543 6.395,0.48 12.426,1.6639 16.737,6.5705 3.935,4.4779 4.614,10.8911 1.888,16.1949 -3.602,7.0099 -11.739,9.4832 -19.433,11.4476 -8.526,2.1764 -17.052,4.5942 -25.587,6.7259 -9.994,2.4961 -20.061,4.6346 -29.446,8.9885 -11.248,5.218 -20.91,13.3283 -27.997,23.5024 -4.611,9.4986 -6.481,20.0949 -5.401,30.5981 1.361,13.2228 7.286,25.5584 16.758,34.8851 6.183,5.2994 13.038,9.7598 20.387,13.2659 23.738,11.3237 50.756,12.2352 76.521,6.947 14.329,-2.9408 28.207,-7.7568 41.278,-14.3236 z"
         id="path366" /></clipPath><clipPath
       clipPathUnits="userSpaceOnUse"
       id="clipPath374"><path
         d="m 1665.619,735.2041 -13.576,-38.5778 c -6.165,2.4765 -12.436,4.6677 -18.806,6.5566 -13.309,3.947 -27.549,6.1945 -41.011,6.3789 -6.25,0.0856 -12.355,-0.3602 -17.731,-3.745 -7.478,-4.7083 -10.829,-14.0163 -6.824,-21.6482 3.631,-6.9218 11.794,-9.2125 19.449,-11.0391 12.304,-2.936 24.573,-6.028 36.942,-8.6792 9.572,-2.0517 19.189,-3.8546 27.649,-8.9524 17.674,-10.6505 25.168,-30.4621 22.176,-51.417 -2.363,-16.5488 -11.407,-31.424 -25.005,-41.1463 -21.781,-10.4891 -45.865,-15.2883 -70.004,-13.9494 -24.82,1.3767 -48.855,9.1926 -69.738,22.6784 2.694,6.3883 5.377,12.7815 8.048,19.1795 2.844,6.8117 5.674,13.6289 8.492,20.4517 10.953,-7.7154 23.063,-13.5658 35.919,-17.3387 12.63,-3.7067 26.249,-4.4599 38.315,-3.5543 6.395,0.48 12.426,1.6639 16.737,6.5705 3.935,4.4779 4.614,10.8911 1.888,16.1949 -3.602,7.0099 -11.739,9.4832 -19.433,11.4476 -8.526,2.1764 -17.052,4.5942 -25.587,6.7259 -9.994,2.4961 -20.061,4.6346 -29.446,8.9885 -11.248,5.218 -20.91,13.3283 -27.997,23.5024 -4.611,9.4986 -6.481,20.0949 -5.401,30.5981 1.361,13.2228 7.286,25.5584 16.758,34.8851 6.183,5.2994 13.038,9.7598 20.387,13.2659 23.738,11.3237 50.756,12.2352 76.521,6.947 14.329,-2.9408 28.207,-7.7568 41.278,-14.3236 z"
         id="path372" /></clipPath><linearGradient
       x1="0"
       y1="0"
       x2="100"
       y2="0"
       gradientUnits="userSpaceOnUse"
       gradientTransform="matrix(1.673879,0,0,-2.058739,1508.14,650.7025)"
       spreadMethod="pad"
       id="linearGradient388"><stop
         style="stop-opacity:1;stop-color:#56c1ff"
         offset="0"
         id="stop384" /><stop
         style="stop-opacity:1;stop-color:#0171bc"
         offset="1"
         id="stop386" /></linearGradient><linearGradient
       x1="0"
       y1="0"
       x2="100"
       y2="0"
       gradientUnits="userSpaceOnUse"
       gradientTransform="matrix(1.568667,0,0,-0.4503494,1699.788,727.3768)"
       spreadMethod="pad"
       id="linearGradient406"><stop
         style="stop-opacity:1;stop-color:#56c1ff"
         offset="0"
         id="stop402" /><stop
         style="stop-opacity:1;stop-color:#0171bc"
         offset="1"
         id="stop404" /></linearGradient><linearGradient
       x1="0"
       y1="0"
       x2="100"
       y2="0"
       gradientUnits="userSpaceOnUse"
       gradientTransform="matrix(1.568667,0,0,-0.4503494,1699.788,652.1351)"
       spreadMethod="pad"
       id="linearGradient424"><stop
         style="stop-opacity:1;stop-color:#56c1ff"
         offset="0"
         id="stop420" /><stop
         style="stop-opacity:1;stop-color:#0171bc"
         offset="1"
         id="stop422" /></linearGradient><linearGradient
       x1="0"
       y1="0"
       x2="100"
       y2="0"
       gradientUnits="userSpaceOnUse"
       gradientTransform="matrix(1.568667,0,0,-0.4503494,1699.788,573.3468)"
       spreadMethod="pad"
       id="linearGradient442"><stop
         style="stop-opacity:1;stop-color:#56c1ff"
         offset="0"
         id="stop438" /><stop
         style="stop-opacity:1;stop-color:#0171bc"
         offset="1"
         id="stop440" /></linearGradient><clipPath
       clipPathUnits="userSpaceOnUse"
       id="clipPath452"><path
         d="M 0,0 H 1920 V 1080 H 0 Z"
         id="path450" /></clipPath></defs><g
     id="g8"
     transform="matrix(1.3333333,0,0,-1.3333333,0,1440)"><g
       id="g10" /><g
       id="g22"><g
         id="g24"
         clip-path="url(#clipPath28)"><g
           id="g30"
           clip-path="url(#clipPath34)"><g
             id="g36"><g
               id="g42"><path
                 d="M 0,0 H 1920 V 1080 H 0 Z"
                 style="fill:url(#linearGradient48);stroke:none"
                 id="path50" /></g></g></g></g></g><g
       id="g52"><g
         id="g54"
         clip-path="url(#clipPath58)"><g
           id="g60"
           clip-path="url(#clipPath64)"><g
             id="g66"><g
               id="g72"><path
                 d="M 0,0 H 1920 V 1080 H 0 Z"
                 style="fill:url(#linearGradient78);stroke:none"
                 id="path80" /></g></g></g></g></g><g
       id="g82"><g
         id="g84"
         clip-path="url(#clipPath88)"><g
           id="g90"
           clip-path="url(#clipPath94)"><g
             id="g96"><g
               id="g102"><path
                 d="M 0,0 H 1920 V 1080 H 0 Z"
                 style="fill:url(#linearGradient108);stroke:none"
                 id="path110" /></g></g></g></g></g><g
       id="g112"><g
         id="g114"
         clip-path="url(#clipPath118)"><g
           id="g120"
           clip-path="url(#clipPath124)"><g
             id="g126"><g
               id="g132"><path
                 d="M 0,0 H 1920 V 1080 H 0 Z"
                 style="fill:url(#linearGradient138);stroke:none"
                 id="path140" /></g></g></g></g></g><g
       id="g142"><g
         id="g144"
         clip-path="url(#clipPath148)"><g
           id="g150"
           clip-path="url(#clipPath154)"><g
             id="g156"><g
               id="g162"><path
                 d="M 0,0 H 1920 V 1080 H 0 Z"
                 style="fill:url(#linearGradient168);stroke:none"
                 id="path170" /></g></g></g></g></g><g
       id="g172"><g
         id="g174"
         clip-path="url(#clipPath178)"><g
           id="g180"
           clip-path="url(#clipPath184)"><g
             id="g186"><g
               id="g192"><path
                 d="M 0,0 H 1920 V 1080 H 0 Z"
                 style="fill:url(#linearGradient198);stroke:none"
                 id="path200" /></g></g></g></g></g><g
       id="g202"><g
         id="g204"
         clip-path="url(#clipPath208)"><g
           id="g210"
           clip-path="url(#clipPath214)"><g
             id="g216"><g
               id="g222"><path
                 d="M 0,0 H 1920 V 1080 H 0 Z"
                 style="fill:url(#linearGradient228);stroke:none"
                 id="path230" /></g></g></g></g></g><g
       id="g232"><g
         id="g234"
         clip-path="url(#clipPath238)"><g
           id="g240"
           clip-path="url(#clipPath244)"><g
             id="g246"><g
               id="g252"><path
                 d="M 0,0 H 1920 V 1080 H 0 Z"
                 style="fill:url(#linearGradient258);stroke:none"
                 id="path260" /></g></g></g></g></g><g
       id="g262"><g
         id="g264"
         clip-path="url(#clipPath268)"><g
           id="g270"
           clip-path="url(#clipPath274)"><g
             id="g276"><g
               id="g282"><path
                 d="M 0,0 H 1920 V 1080 H 0 Z"
                 style="fill:url(#linearGradient288);stroke:none"
                 id="path290" /></g></g></g></g></g><g
       id="g292"><g
         id="g294"
         clip-path="url(#clipPath298)"><g
           id="g300"
           clip-path="url(#clipPath304)"><g
             id="g306"><g
               id="g312"><path
                 d="M 0,0 H 1920 V 1080 H 0 Z"
                 style="fill:url(#linearGradient318);stroke:none"
                 id="path320" /></g></g></g></g></g><g
       id="g322"><g
         id="g324"
         clip-path="url(#clipPath328)"><path
           d="m 1433.651,593.4464 -0.01,-10.8063 11.393,-0.0128 -0.033,-10.723 -11.282,-0.0475 -0.064,-10.77 -12.727,-0.0289 0.067,10.9572 -11.369,-0.0581 0.067,10.8209 11.383,0.0136 -0.045,10.7093 12.615,-0.0544 z"
           style="fill:#ffffff;fill-opacity:1;fill-rule:nonzero;stroke:none"
           id="path330" /></g></g><g
       id="g332"><g
         id="g334"
         clip-path="url(#clipPath338)"><g
           id="g340"
           clip-path="url(#clipPath344)"><g
             id="g346"><g
               id="g352"><path
                 d="M 0,0 H 1920 V 1080 H 0 Z"
                 style="fill:url(#linearGradient358);stroke:none"
                 id="path360" /></g></g></g></g></g><g
       id="g362"><g
         id="g364"
         clip-path="url(#clipPath368)"><g
           id="g370"
           clip-path="url(#clipPath374)"><g
             id="g376"><g
               id="g382"><path
                 d="M 0,0 H 1920 V 1080 H 0 Z"
                 style="fill:url(#linearGradient388);stroke:none"
                 id="path390" /></g></g></g></g></g><g
       id="g392"><g
         id="g394"><g
           id="g400"><path
             d="m 1700.788,705.8593 h 154.8667 v 43.03494 H 1700.788 Z"
             style="fill:url(#linearGradient406);stroke:none"
             id="path408" /></g></g></g><g
       id="g410"><g
         id="g412"><g
           id="g418"><path
             d="m 1700.788,630.6176 h 154.8667 v 43.03494 H 1700.788 Z"
             style="fill:url(#linearGradient424);stroke:none"
             id="path426" /></g></g></g><g
       id="g428"><g
         id="g430"><g
           id="g436"><path
             d="m 1700.788,551.8293 h 154.8667 v 43.03494 H 1700.788 Z"
             style="fill:url(#linearGradient442);stroke:none"
             id="path444" /></g></g></g><g
       id="g446"><g
         id="g448"
         clip-path="url(#clipPath452)"><g
           id="g454"
           transform="translate(55.84548,375.1616)"><text
             transform="scale(1,-1)"
             style="font-variant:normal;font-weight:normal;font-size:150px;font-family:'Signika Negative';-inkscape-font-specification:SignikaNegative-Regular;writing-mode:lr-tb;fill:#0071bb;fill-opacity:1;fill-rule:nonzero;stroke:none"
             id="text458"><tspan
               x="0 120.75 190.425 280.875 324 364.27499 446.10001 486.375 558.52502 598.79999 674.77502"
               y="0"
               id="tspan456">MyClinician</tspan></text></g></g></g></g></svg>
