<?xml version="1.0" encoding="UTF-8" standalone="no"?>
<!-- Created with Inkscape (http://www.inkscape.org/) -->

<svg
   version="1.1"
   id="svg25"
   xml:space="preserve"
   width="2560"
   height="1440"
   viewBox="0 0 2560 1440"
   sodipodi:docname="myclinician.svg"
   inkscape:version="1.1.2 (b8e25be8, 2022-02-05)"
   xmlns:inkscape="http://www.inkscape.org/namespaces/inkscape"
   xmlns:sodipodi="http://sodipodi.sourceforge.net/DTD/sodipodi-0.dtd"
   xmlns="http://www.w3.org/2000/svg"
   xmlns:svg="http://www.w3.org/2000/svg"><sodipodi:namedview
     id="namedview204"
     pagecolor="#ffffff"
     bordercolor="#666666"
     borderopacity="1.0"
     inkscape:pageshadow="2"
     inkscape:pageopacity="0.0"
     inkscape:pagecheckerboard="0"
     showgrid="false"
     inkscape:zoom="0.44648437"
     inkscape:cx="1396.4654"
     inkscape:cy="769.34383"
     inkscape:window-width="1312"
     inkscape:window-height="969"
     inkscape:window-x="441"
     inkscape:window-y="25"
     inkscape:window-maximized="0"
     inkscape:current-layer="text481" /><defs
     id="defs29"><clipPath
       clipPathUnits="userSpaceOnUse"
       id="clipPath41"><path
         d="M 0,0 H 1920 V 1080 H 0 Z"
         id="path39" /></clipPath><clipPath
       clipPathUnits="userSpaceOnUse"
       id="clipPath51"><path
         d="m 64.34548,669.359 0.01471,-116.9599 52.46771,-0.003 0.1365,25.6498 -52.61892,91.3129 z"
         id="path49" /></clipPath><clipPath
       clipPathUnits="userSpaceOnUse"
       id="clipPath57"><path
         d="m 64.34548,669.359 0.01471,-116.9599 52.46771,-0.003 0.1365,25.6498 -52.61892,91.3129 z"
         id="path55" /></clipPath><linearGradient
       x1="0"
       y1="0"
       x2="100"
       y2="0"
       gradientUnits="userSpaceOnUse"
       gradientTransform="matrix(0.5461895,0,0,-1.189627,63.34548,610.8777)"
       spreadMethod="pad"
       id="linearGradient71"><stop
         style="stop-opacity:1;stop-color:#56c1ff"
         offset="0"
         id="stop67" /><stop
         style="stop-opacity:1;stop-color:#0171bc"
         offset="1"
         id="stop69" /></linearGradient><clipPath
       clipPathUnits="userSpaceOnUse"
       id="clipPath81"><path
         d="m 65.29813,748.5209 97.26647,-175.5282 31.0725,0.103 97.4535,175.7849 -45.1163,-0.2465 -67.1541,-113.5883 -67.4215,113.4106 z"
         id="path79" /></clipPath><clipPath
       clipPathUnits="userSpaceOnUse"
       id="clipPath87"><path
         d="m 65.29813,748.5209 97.26647,-175.5282 31.0725,0.103 97.4535,175.7849 -45.1163,-0.2465 -67.1541,-113.5883 -67.4215,113.4106 z"
         id="path85" /></clipPath><linearGradient
       x1="0"
       y1="0"
       x2="100"
       y2="0"
       gradientUnits="userSpaceOnUse"
       gradientTransform="matrix(2.277925,0,0,-1.778879,64.29813,660.9367)"
       spreadMethod="pad"
       id="linearGradient101"><stop
         style="stop-opacity:1;stop-color:#56c1ff"
         offset="0"
         id="stop97" /><stop
         style="stop-opacity:1;stop-color:#0171bc"
         offset="1"
         id="stop99" /></linearGradient><clipPath
       clipPathUnits="userSpaceOnUse"
       id="clipPath111"><path
         d="m 307.4539,748.5589 57.4955,0.0428 45.4189,-77.6992 45.7073,77.5866 52.896,-0.0129 -74.8787,-124.5549 -0.4879,-72.024 -52.779,0.1227 0.786,73.1667 z"
         id="path109" /></clipPath><clipPath
       clipPathUnits="userSpaceOnUse"
       id="clipPath117"><path
         d="m 307.4539,748.5589 57.4955,0.0428 45.4189,-77.6992 45.7073,77.5866 52.896,-0.0129 -74.8787,-124.5549 -0.4879,-72.024 -52.779,0.1227 0.786,73.1667 z"
         id="path115" /></clipPath><linearGradient
       x1="0"
       y1="0"
       x2="100"
       y2="0"
       gradientUnits="userSpaceOnUse"
       gradientTransform="matrix(2.035177,0,0,-1.987044,306.4539,650.2495)"
       spreadMethod="pad"
       id="linearGradient131"><stop
         style="stop-opacity:1;stop-color:#56c1ff"
         offset="0"
         id="stop127" /><stop
         style="stop-opacity:1;stop-color:#0171bc"
         offset="1"
         id="stop129" /></linearGradient><clipPath
       clipPathUnits="userSpaceOnUse"
       id="clipPath141"><path
         d="m 291.8274,669.8398 0.1153,-117.4478 -52.0656,-0.003 -0.1665,26.1077 52.1168,91.3429 z"
         id="path139" /></clipPath><clipPath
       clipPathUnits="userSpaceOnUse"
       id="clipPath147"><path
         d="m 291.8274,669.8398 0.1153,-117.4478 -52.0656,-0.003 -0.1665,26.1077 52.1168,91.3429 z"
         id="path145" /></clipPath><linearGradient
       x1="0"
       y1="0"
       x2="100"
       y2="0"
       gradientUnits="userSpaceOnUse"
       gradientTransform="matrix(-0.5423212,0,0,-1.194506,292.9427,611.1145)"
       spreadMethod="pad"
       id="linearGradient161"><stop
         style="stop-opacity:1;stop-color:#56c1ff"
         offset="0"
         id="stop157" /><stop
         style="stop-opacity:1;stop-color:#0171bc"
         offset="1"
         id="stop159" /></linearGradient><clipPath
       clipPathUnits="userSpaceOnUse"
       id="clipPath171"><path
         d="m 699.0124,716.9931 -32.6181,-31.2229 c -9.4709,9.1572 -21.16,15.5217 -33.7995,18.5692 -5.4192,1.3066 -10.965,1.9876 -16.5337,2.2241 -5.6115,0.2383 -11.2983,0.0326 -16.8561,-1.3355 -6.3095,-1.5532 -12.1721,-4.5505 -17.1264,-8.755 -14.0893,-11.7432 -21.9435,-29.3512 -21.2682,-47.6803 0.5028,-13.6484 5.7763,-26.6883 14.9022,-36.8494 7.6727,-7.1477 16.9466,-12.3525 27.0447,-15.1785 15.2246,-4.2607 31.4038,-2.9298 45.6606,3.6358 l 0.1699,10.5569 -0.2597,43.3205 47.7003,0.1099 -1.214,-81.3014 c -22.8051,-14.0167 -49.0694,-21.3909 -75.8375,-21.2929 -26.4013,0.0967 -52.2663,7.4611 -74.7589,21.2858 -23.7194,18.7628 -37.5849,47.3205 -37.659,77.5637 -0.0778,31.7753 15.0219,61.6777 40.6388,80.4781 21.6169,12.8 46.4637,19.1011 71.5679,18.1495 27.323,-1.0356 53.638,-10.5908 75.26,-27.3275 z"
         id="path169" /></clipPath><clipPath
       clipPathUnits="userSpaceOnUse"
       id="clipPath177"><path
         d="m 699.0124,716.9931 -32.6181,-31.2229 c -9.4709,9.1572 -21.16,15.5217 -33.7995,18.5692 -5.4192,1.3066 -10.965,1.9876 -16.5337,2.2241 -5.6115,0.2383 -11.2983,0.0326 -16.8561,-1.3355 -6.3095,-1.5532 -12.1721,-4.5505 -17.1264,-8.755 -14.0893,-11.7432 -21.9435,-29.3512 -21.2682,-47.6803 0.5028,-13.6484 5.7763,-26.6883 14.9022,-36.8494 7.6727,-7.1477 16.9466,-12.3525 27.0447,-15.1785 15.2246,-4.2607 31.4038,-2.9298 45.6606,3.6358 l 0.1699,10.5569 -0.2597,43.3205 47.7003,0.1099 -1.214,-81.3014 c -22.8051,-14.0167 -49.0694,-21.3909 -75.8375,-21.2929 -26.4013,0.0967 -52.2663,7.4611 -74.7589,21.2858 -23.7194,18.7628 -37.5849,47.3205 -37.659,77.5637 -0.0778,31.7753 15.0219,61.6777 40.6388,80.4781 21.6169,12.8 46.4637,19.1011 71.5679,18.1495 27.323,-1.0356 53.638,-10.5908 75.26,-27.3275 z"
         id="path175" /></clipPath><linearGradient
       x1="0"
       y1="0"
       x2="100"
       y2="0"
       gradientUnits="userSpaceOnUse"
       gradientTransform="matrix(1.944536,0,0,-1.99572,505.5587,650.5786)"
       spreadMethod="pad"
       id="linearGradient191"><stop
         style="stop-opacity:1;stop-color:#56c1ff"
         offset="0"
         id="stop187" /><stop
         style="stop-opacity:1;stop-color:#0171bc"
         offset="1"
         id="stop189" /></linearGradient><clipPath
       clipPathUnits="userSpaceOnUse"
       id="clipPath201"><path
         d="m 784.9621,748.7443 -1.2783,-153.16 93.9626,-0.4447 -0.1759,-43.1109 -147.9599,0.1028 0.4112,196.5789 z"
         id="path199" /></clipPath><clipPath
       clipPathUnits="userSpaceOnUse"
       id="clipPath207"><path
         d="m 784.9621,748.7443 -1.2783,-153.16 93.9626,-0.4447 -0.1759,-43.1109 -147.9599,0.1028 0.4112,196.5789 z"
         id="path205" /></clipPath><linearGradient
       x1="0"
       y1="0"
       x2="100"
       y2="0"
       gradientUnits="userSpaceOnUse"
       gradientTransform="matrix(1.501358,0,0,-1.987155,728.5106,650.3865)"
       spreadMethod="pad"
       id="linearGradient221"><stop
         style="stop-opacity:1;stop-color:#56c1ff"
         offset="0"
         id="stop217" /><stop
         style="stop-opacity:1;stop-color:#0171bc"
         offset="1"
         id="stop219" /></linearGradient><clipPath
       clipPathUnits="userSpaceOnUse"
       id="clipPath231"><path
         d="m 952.4693,749.2708 0.0308,-115.4372 c -1.2104,-20.7739 15.2841,-38.2972 36.0932,-38.3444 20.5617,-0.0466 37.0247,17.0372 36.2177,37.5829 l 0.01,116.1011 54.017,0.0528 -0.262,-125.1599 c 0.131,-14.8885 -4.809,-29.3783 -14.006,-41.0868 -18.258,-23.2419 -48.503,-31.713 -78.2496,-31.1066 -29.4163,0.5996 -59.0071,10.1363 -75.9317,33.9479 -8.0978,11.3929 -12.2218,25.1337 -11.7361,39.1028 l 0.49,124.3474 h 53.3277 z"
         id="path229" /></clipPath><clipPath
       clipPathUnits="userSpaceOnUse"
       id="clipPath237"><path
         d="m 952.4693,749.2708 0.0308,-115.4372 c -1.2104,-20.7739 15.2841,-38.2972 36.0932,-38.3444 20.5617,-0.0466 37.0247,17.0372 36.2177,37.5829 l 0.01,116.1011 54.017,0.0528 -0.262,-125.1599 c 0.131,-14.8885 -4.809,-29.3783 -14.006,-41.0868 -18.258,-23.2419 -48.503,-31.713 -78.2496,-31.1066 -29.4163,0.5996 -59.0071,10.1363 -75.9317,33.9479 -8.0978,11.3929 -12.2218,25.1337 -11.7361,39.1028 l 0.49,124.3474 h 53.3277 z"
         id="path235" /></clipPath><linearGradient
       x1="0"
       y1="0"
       x2="100"
       y2="0"
       gradientUnits="userSpaceOnUse"
       gradientTransform="matrix(1.822234,0,0,-1.994283,897.6132,650.5566)"
       spreadMethod="pad"
       id="linearGradient251"><stop
         style="stop-opacity:1;stop-color:#56c1ff"
         offset="0"
         id="stop247" /><stop
         style="stop-opacity:1;stop-color:#0171bc"
         offset="1"
         id="stop249" /></linearGradient><clipPath
       clipPathUnits="userSpaceOnUse"
       id="clipPath261"><path
         d="m 1297.383,717.5251 -34.207,-32.5554 c -11.873,11.3835 -25.941,17.4235 -40.216,18.8162 -14.433,1.408 -29.422,-1.9104 -41.262,-11.0423 -12.4,-9.5644 -19.543,-25.0716 -19.199,-42.7135 0.549,-28.2043 19.127,-48.1842 41.778,-54.0889 10.417,-2.7156 21.529,-2.3644 31.905,1.1701 10.248,3.4905 19.777,10.0811 27.394,20.1145 l 33.718,-33.1402 c -21.275,-20.6229 -49.508,-32.5442 -79.127,-33.3565 -58.329,-1.5994 -108.716,39.8003 -109.917,96.0323 -0.735,34.4405 14.813,63.8095 39.204,82.1033 17.267,12.951 38.012,20.1379 59.155,21.5903 31.84,2.1872 64.577,-8.3836 90.774,-32.9299 z"
         id="path259" /></clipPath><clipPath
       clipPathUnits="userSpaceOnUse"
       id="clipPath267"><path
         d="m 1297.383,717.5251 -34.207,-32.5554 c -11.873,11.3835 -25.941,17.4235 -40.216,18.8162 -14.433,1.408 -29.422,-1.9104 -41.262,-11.0423 -12.4,-9.5644 -19.543,-25.0716 -19.199,-42.7135 0.549,-28.2043 19.127,-48.1842 41.778,-54.0889 10.417,-2.7156 21.529,-2.3644 31.905,1.1701 10.248,3.4905 19.777,10.0811 27.394,20.1145 l 33.718,-33.1402 c -21.275,-20.6229 -49.508,-32.5442 -79.127,-33.3565 -58.329,-1.5994 -108.716,39.8003 -109.917,96.0323 -0.735,34.4405 14.813,63.8095 39.204,82.1033 17.267,12.951 38.012,20.1379 59.155,21.5903 31.84,2.1872 64.577,-8.3836 90.774,-32.9299 z"
         id="path265" /></clipPath><linearGradient
       x1="0"
       y1="0"
       x2="100"
       y2="0"
       gradientUnits="userSpaceOnUse"
       gradientTransform="matrix(1.911584,0,0,-2.020511,1107.225,650.7099)"
       spreadMethod="pad"
       id="linearGradient281"><stop
         style="stop-opacity:1;stop-color:#56c1ff"
         offset="0"
         id="stop277" /><stop
         style="stop-opacity:1;stop-color:#0171bc"
         offset="1"
         id="stop279" /></linearGradient><clipPath
       clipPathUnits="userSpaceOnUse"
       id="clipPath291"><path
         d="m 1352.197,719.2407 c -1.429,-5.932 -2.192,-12.0046 -2.277,-18.1055 -0.083,-5.9638 0.484,-11.9189 1.691,-17.76 1.814,-11.5393 6.721,-22.3712 14.201,-31.3435 8.298,-9.9542 19.391,-17.1915 31.844,-20.7766 9.13,2.6658 17.541,7.3541 24.611,13.7166 10.848,9.7639 18.055,22.9339 20.365,37.3498 1.598,5.9413 2.409,12.0668 2.412,18.2193 0,6.2389 -0.824,12.4503 -2.461,18.4707 -6.634,18.5872 -23.983,31.2077 -43.71,31.7969 -20.731,0.6192 -39.532,-12.0965 -46.676,-31.5677 z"
         id="path289" /></clipPath><clipPath
       clipPathUnits="userSpaceOnUse"
       id="clipPath297"><path
         d="m 1352.197,719.2407 c -1.429,-5.932 -2.192,-12.0046 -2.277,-18.1055 -0.083,-5.9638 0.484,-11.9189 1.691,-17.76 1.814,-11.5393 6.721,-22.3712 14.201,-31.3435 8.298,-9.9542 19.391,-17.1915 31.844,-20.7766 9.13,2.6658 17.541,7.3541 24.611,13.7166 10.848,9.7639 18.055,22.9339 20.365,37.3498 1.598,5.9413 2.409,12.0668 2.412,18.2193 0,6.2389 -0.824,12.4503 -2.461,18.4707 -6.634,18.5872 -23.983,31.2077 -43.71,31.7969 -20.731,0.6192 -39.532,-12.0965 -46.676,-31.5677 z"
         id="path295" /></clipPath><linearGradient
       x1="0"
       y1="0"
       x2="100"
       y2="0"
       gradientUnits="userSpaceOnUse"
       gradientTransform="matrix(0.9713185,0,0,-1.21575,1348.912,691.0426)"
       spreadMethod="pad"
       id="linearGradient311"><stop
         style="stop-opacity:1;stop-color:#56c1ff"
         offset="0"
         id="stop307" /><stop
         style="stop-opacity:1;stop-color:#0171bc"
         offset="1"
         id="stop309" /></linearGradient><clipPath
       clipPathUnits="userSpaceOnUse"
       id="clipPath321"><path
         d="m 1431.694,634.118 -35.546,-32.827 c -6.295,4.6572 -12.216,9.7996 -17.709,15.3801 -2.998,3.0461 -5.944,6.2901 -8.761,9.4606 -2.983,3.3575 -5.964,6.7104 -10.296,8.1135 -0.974,0.3158 -1.985,0.5086 -3.008,0.5649 -8.956,0.4928 -15.825,-7.834 -13.639,-16.533 5.382,-2.6964 9.927,-6.8084 13.147,-11.8942 2.331,-3.6801 3.908,-7.7859 4.64,-12.0797 0.676,-2.1033 1.169,-4.261 1.473,-6.4491 0.304,-2.188 0.419,-4.3979 0.351,-6.6059 -0.149,-4.9037 -1.19,-9.7393 -3.071,-14.2704 l -17.402,-0.1441 -0.014,8.6867 8.262,0.0314 c 1.794,5.8822 1.976,12.1411 0.47,18.1087 -1.583,6.273 -5.539,11.9666 -11.567,11.9878 -6.175,0.0218 -10.267,-5.9504 -11.926,-12.485 -1.446,-5.6914 -1.638,-11.6288 -0.564,-17.4018 l 7.532,-0.0628 -0.189,-8.7566 -13.128,-0.0799 c -1.932,0.8482 -3.515,2.3322 -4.485,4.205 -0.456,0.8789 -0.763,1.8234 -1.025,2.7778 -2.569,9.3754 -0.807,19.3013 3.793,27.8744 3.652,6.8075 8.973,12.5761 15.464,16.7649 2.751,2.4902 2.768,6.8058 0.037,9.3179 -2.78,2.5571 -7.167,2.1243 -9.394,-0.9265 -8.148,-8.1789 -14.092,-17.6699 -17.906,-27.8628 -4.513,-12.0622 -6.314,-26.1872 1.467,-37.952 3.882,-5.87 9.999,-9.9224 16.918,-11.2082 l 141.337,0.2397 c 4.732,1.2394 9.019,3.7931 12.363,7.3642 7.802,8.3339 9.714,19.4161 8.475,30.2187 -1.241,10.8144 -5.506,21.7944 -13.183,30.6749 -2.435,2.8173 -5.159,5.3697 -8.105,7.6481 -1.378,1.0657 -2.806,2.0724 -4.364,2.8528 -1.318,0.6603 -2.799,1.1434 -4.169,0.62 -2.328,-0.8893 -2.954,-3.7697 -2.162,-6.326 0.734,-2.3693 2.393,-4.2869 4.221,-5.959 2.479,-2.2667 5.318,-4.168 7.36,-6.842 0.857,-1.1218 1.554,-2.3588 2.029,-3.6883 1.79,-5.0114 0.384,-10.5576 -3.25,-14.4733 -4.207,-4.5321 -10.654,-6.2252 -16.545,-4.3447 -7.134,1.8245 -11.669,8.824 -10.419,16.0808 0.917,5.3213 4.907,9.3958 7.278,14.2105 2.879,5.8462 2.98,12.9702 -1.857,16.9076 -3.878,3.1559 -9.54,2.7536 -12.933,-0.9187 z"
         id="path319" /></clipPath><clipPath
       clipPathUnits="userSpaceOnUse"
       id="clipPath327"><path
         d="m 1431.694,634.118 -35.546,-32.827 c -6.295,4.6572 -12.216,9.7996 -17.709,15.3801 -2.998,3.0461 -5.944,6.2901 -8.761,9.4606 -2.983,3.3575 -5.964,6.7104 -10.296,8.1135 -0.974,0.3158 -1.985,0.5086 -3.008,0.5649 -8.956,0.4928 -15.825,-7.834 -13.639,-16.533 5.382,-2.6964 9.927,-6.8084 13.147,-11.8942 2.331,-3.6801 3.908,-7.7859 4.64,-12.0797 0.676,-2.1033 1.169,-4.261 1.473,-6.4491 0.304,-2.188 0.419,-4.3979 0.351,-6.6059 -0.149,-4.9037 -1.19,-9.7393 -3.071,-14.2704 l -17.402,-0.1441 -0.014,8.6867 8.262,0.0314 c 1.794,5.8822 1.976,12.1411 0.47,18.1087 -1.583,6.273 -5.539,11.9666 -11.567,11.9878 -6.175,0.0218 -10.267,-5.9504 -11.926,-12.485 -1.446,-5.6914 -1.638,-11.6288 -0.564,-17.4018 l 7.532,-0.0628 -0.189,-8.7566 -13.128,-0.0799 c -1.932,0.8482 -3.515,2.3322 -4.485,4.205 -0.456,0.8789 -0.763,1.8234 -1.025,2.7778 -2.569,9.3754 -0.807,19.3013 3.793,27.8744 3.652,6.8075 8.973,12.5761 15.464,16.7649 2.751,2.4902 2.768,6.8058 0.037,9.3179 -2.78,2.5571 -7.167,2.1243 -9.394,-0.9265 -8.148,-8.1789 -14.092,-17.6699 -17.906,-27.8628 -4.513,-12.0622 -6.314,-26.1872 1.467,-37.952 3.882,-5.87 9.999,-9.9224 16.918,-11.2082 l 141.337,0.2397 c 4.732,1.2394 9.019,3.7931 12.363,7.3642 7.802,8.3339 9.714,19.4161 8.475,30.2187 -1.241,10.8144 -5.506,21.7944 -13.183,30.6749 -2.435,2.8173 -5.159,5.3697 -8.105,7.6481 -1.378,1.0657 -2.806,2.0724 -4.364,2.8528 -1.318,0.6603 -2.799,1.1434 -4.169,0.62 -2.328,-0.8893 -2.954,-3.7697 -2.162,-6.326 0.734,-2.3693 2.393,-4.2869 4.221,-5.959 2.479,-2.2667 5.318,-4.168 7.36,-6.842 0.857,-1.1218 1.554,-2.3588 2.029,-3.6883 1.79,-5.0114 0.384,-10.5576 -3.25,-14.4733 -4.207,-4.5321 -10.654,-6.2252 -16.545,-4.3447 -7.134,1.8245 -11.669,8.824 -10.419,16.0808 0.917,5.3213 4.907,9.3958 7.278,14.2105 2.879,5.8462 2.98,12.9702 -1.857,16.9076 -3.878,3.1559 -9.54,2.7536 -12.933,-0.9187 z"
         id="path325" /></clipPath><linearGradient
       x1="0"
       y1="0"
       x2="100"
       y2="0"
       gradientUnits="userSpaceOnUse"
       gradientTransform="matrix(1.867845,0,0,-0.8930912,1302.355,593.5073)"
       spreadMethod="pad"
       id="linearGradient341"><stop
         style="stop-opacity:1;stop-color:#56c1ff"
         offset="0"
         id="stop337" /><stop
         style="stop-opacity:1;stop-color:#0171bc"
         offset="1"
         id="stop339" /></linearGradient><clipPath
       clipPathUnits="userSpaceOnUse"
       id="clipPath351"><path
         d="M 0,0 H 1920 V 1080 H 0 Z"
         id="path349" /></clipPath><clipPath
       clipPathUnits="userSpaceOnUse"
       id="clipPath361"><path
         d="m 1458.354,608.1743 c 2.376,-2.3765 2.376,-6.2295 0,-8.6059 -2.377,-2.3765 -6.23,-2.3765 -8.606,0 -2.377,2.3764 -2.377,6.2294 0,8.6059 2.376,2.3764 6.229,2.3764 8.606,0 z"
         id="path359" /></clipPath><clipPath
       clipPathUnits="userSpaceOnUse"
       id="clipPath367"><path
         d="m 1458.354,608.1743 c 2.376,-2.3765 2.376,-6.2295 0,-8.6059 -2.377,-2.3765 -6.23,-2.3765 -8.606,0 -2.377,2.3764 -2.377,6.2294 0,8.6059 2.376,2.3764 6.229,2.3764 8.606,0 z"
         id="path365" /></clipPath><linearGradient
       x1="0"
       y1="0"
       x2="100"
       y2="0"
       gradientUnits="userSpaceOnUse"
       gradientTransform="matrix(0.1417059,0,0,-0.1417059,1446.966,603.8713)"
       spreadMethod="pad"
       id="linearGradient381"><stop
         style="stop-opacity:1;stop-color:#56c1ff"
         offset="0"
         id="stop377" /><stop
         style="stop-opacity:1;stop-color:#0171bc"
         offset="1"
         id="stop379" /></linearGradient><clipPath
       clipPathUnits="userSpaceOnUse"
       id="clipPath391"><path
         d="m 1665.619,735.2041 -13.576,-38.5778 c -6.165,2.4765 -12.436,4.6677 -18.806,6.5566 -13.309,3.947 -27.549,6.1945 -41.011,6.3789 -6.25,0.0856 -12.355,-0.3602 -17.731,-3.745 -7.478,-4.7083 -10.828,-14.0163 -6.824,-21.6482 3.631,-6.9218 11.794,-9.2125 19.449,-11.0391 12.304,-2.936 24.573,-6.028 36.942,-8.6792 9.573,-2.0517 19.189,-3.8546 27.649,-8.9524 17.674,-10.6505 25.168,-30.4621 22.176,-51.417 -2.363,-16.5488 -11.406,-31.424 -25.005,-41.1463 -21.781,-10.4891 -45.865,-15.2883 -70.004,-13.9494 -24.82,1.3767 -48.855,9.1926 -69.738,22.6784 2.694,6.3883 5.377,12.7815 8.048,19.1795 2.844,6.8117 5.675,13.6289 8.492,20.4517 10.953,-7.7154 23.063,-13.5658 35.919,-17.3387 12.63,-3.7067 26.249,-4.4599 38.315,-3.5543 6.395,0.48 12.426,1.6639 16.737,6.5705 3.935,4.4779 4.614,10.8911 1.889,16.1949 -3.603,7.0099 -11.74,9.4832 -19.434,11.4476 -8.526,2.1764 -17.052,4.5942 -25.587,6.7259 -9.994,2.4961 -20.061,4.6346 -29.446,8.9885 -11.248,5.218 -20.91,13.3283 -27.997,23.5024 -4.611,9.4986 -6.481,20.0949 -5.4,30.5981 1.36,13.2228 7.285,25.5584 16.757,34.8851 6.183,5.2994 13.038,9.7598 20.387,13.2659 23.738,11.3237 50.757,12.2352 76.521,6.9471 14.329,-2.9409 28.207,-7.7569 41.278,-14.3237 z"
         id="path389" /></clipPath><clipPath
       clipPathUnits="userSpaceOnUse"
       id="clipPath397"><path
         d="m 1665.619,735.2041 -13.576,-38.5778 c -6.165,2.4765 -12.436,4.6677 -18.806,6.5566 -13.309,3.947 -27.549,6.1945 -41.011,6.3789 -6.25,0.0856 -12.355,-0.3602 -17.731,-3.745 -7.478,-4.7083 -10.828,-14.0163 -6.824,-21.6482 3.631,-6.9218 11.794,-9.2125 19.449,-11.0391 12.304,-2.936 24.573,-6.028 36.942,-8.6792 9.573,-2.0517 19.189,-3.8546 27.649,-8.9524 17.674,-10.6505 25.168,-30.4621 22.176,-51.417 -2.363,-16.5488 -11.406,-31.424 -25.005,-41.1463 -21.781,-10.4891 -45.865,-15.2883 -70.004,-13.9494 -24.82,1.3767 -48.855,9.1926 -69.738,22.6784 2.694,6.3883 5.377,12.7815 8.048,19.1795 2.844,6.8117 5.675,13.6289 8.492,20.4517 10.953,-7.7154 23.063,-13.5658 35.919,-17.3387 12.63,-3.7067 26.249,-4.4599 38.315,-3.5543 6.395,0.48 12.426,1.6639 16.737,6.5705 3.935,4.4779 4.614,10.8911 1.889,16.1949 -3.603,7.0099 -11.74,9.4832 -19.434,11.4476 -8.526,2.1764 -17.052,4.5942 -25.587,6.7259 -9.994,2.4961 -20.061,4.6346 -29.446,8.9885 -11.248,5.218 -20.91,13.3283 -27.997,23.5024 -4.611,9.4986 -6.481,20.0949 -5.4,30.5981 1.36,13.2228 7.285,25.5584 16.757,34.8851 6.183,5.2994 13.038,9.7598 20.387,13.2659 23.738,11.3237 50.757,12.2352 76.521,6.9471 14.329,-2.9409 28.207,-7.7569 41.278,-14.3237 z"
         id="path395" /></clipPath><linearGradient
       x1="0"
       y1="0"
       x2="100"
       y2="0"
       gradientUnits="userSpaceOnUse"
       gradientTransform="matrix(1.673879,0,0,-2.058739,1508.14,650.7025)"
       spreadMethod="pad"
       id="linearGradient411"><stop
         style="stop-opacity:1;stop-color:#56c1ff"
         offset="0"
         id="stop407" /><stop
         style="stop-opacity:1;stop-color:#0171bc"
         offset="1"
         id="stop409" /></linearGradient><linearGradient
       x1="0"
       y1="0"
       x2="100"
       y2="0"
       gradientUnits="userSpaceOnUse"
       gradientTransform="matrix(1.568667,0,0,-0.4503494,1699.788,727.3768)"
       spreadMethod="pad"
       id="linearGradient429"><stop
         style="stop-opacity:1;stop-color:#56c1ff"
         offset="0"
         id="stop425" /><stop
         style="stop-opacity:1;stop-color:#0171bc"
         offset="1"
         id="stop427" /></linearGradient><linearGradient
       x1="0"
       y1="0"
       x2="100"
       y2="0"
       gradientUnits="userSpaceOnUse"
       gradientTransform="matrix(1.568667,0,0,-0.4503494,1699.788,652.1351)"
       spreadMethod="pad"
       id="linearGradient447"><stop
         style="stop-opacity:1;stop-color:#56c1ff"
         offset="0"
         id="stop443" /><stop
         style="stop-opacity:1;stop-color:#0171bc"
         offset="1"
         id="stop445" /></linearGradient><linearGradient
       x1="0"
       y1="0"
       x2="100"
       y2="0"
       gradientUnits="userSpaceOnUse"
       gradientTransform="matrix(1.568667,0,0,-0.4503494,1699.788,573.3468)"
       spreadMethod="pad"
       id="linearGradient465"><stop
         style="stop-opacity:1;stop-color:#56c1ff"
         offset="0"
         id="stop461" /><stop
         style="stop-opacity:1;stop-color:#0171bc"
         offset="1"
         id="stop463" /></linearGradient><clipPath
       clipPathUnits="userSpaceOnUse"
       id="clipPath475"><path
         d="M 0,0 H 1920 V 1080 H 0 Z"
         id="path473" /></clipPath></defs><g
     id="g31"
     transform="matrix(1.3333333,0,0,-1.3333333,0,1440)"><g
       id="g33" /><g
       id="g45"><g
         id="g47"
         clip-path="url(#clipPath51)"><g
           id="g53"
           clip-path="url(#clipPath57)"><g
             id="g59"><g
               id="g65"><path
                 d="M 0,0 H 1920 V 1080 H 0 Z"
                 style="fill:url(#linearGradient71);stroke:none"
                 id="path73" /></g></g></g></g></g><g
       id="g75"><g
         id="g77"
         clip-path="url(#clipPath81)"><g
           id="g83"
           clip-path="url(#clipPath87)"><g
             id="g89"><g
               id="g95"><path
                 d="M 0,0 H 1920 V 1080 H 0 Z"
                 style="fill:url(#linearGradient101);stroke:none"
                 id="path103" /></g></g></g></g></g><g
       id="g105"><g
         id="g107"
         clip-path="url(#clipPath111)"><g
           id="g113"
           clip-path="url(#clipPath117)"><g
             id="g119"><g
               id="g125"><path
                 d="M 0,0 H 1920 V 1080 H 0 Z"
                 style="fill:url(#linearGradient131);stroke:none"
                 id="path133" /></g></g></g></g></g><g
       id="g135"><g
         id="g137"
         clip-path="url(#clipPath141)"><g
           id="g143"
           clip-path="url(#clipPath147)"><g
             id="g149"><g
               id="g155"><path
                 d="M 0,0 H 1920 V 1080 H 0 Z"
                 style="fill:url(#linearGradient161);stroke:none"
                 id="path163" /></g></g></g></g></g><g
       id="g165"><g
         id="g167"
         clip-path="url(#clipPath171)"><g
           id="g173"
           clip-path="url(#clipPath177)"><g
             id="g179"><g
               id="g185"><path
                 d="M 0,0 H 1920 V 1080 H 0 Z"
                 style="fill:url(#linearGradient191);stroke:none"
                 id="path193" /></g></g></g></g></g><g
       id="g195"><g
         id="g197"
         clip-path="url(#clipPath201)"><g
           id="g203"
           clip-path="url(#clipPath207)"><g
             id="g209"><g
               id="g215"><path
                 d="M 0,0 H 1920 V 1080 H 0 Z"
                 style="fill:url(#linearGradient221);stroke:none"
                 id="path223" /></g></g></g></g></g><g
       id="g225"><g
         id="g227"
         clip-path="url(#clipPath231)"><g
           id="g233"
           clip-path="url(#clipPath237)"><g
             id="g239"><g
               id="g245"><path
                 d="M 0,0 H 1920 V 1080 H 0 Z"
                 style="fill:url(#linearGradient251);stroke:none"
                 id="path253" /></g></g></g></g></g><g
       id="g255"><g
         id="g257"
         clip-path="url(#clipPath261)"><g
           id="g263"
           clip-path="url(#clipPath267)"><g
             id="g269"><g
               id="g275"><path
                 d="M 0,0 H 1920 V 1080 H 0 Z"
                 style="fill:url(#linearGradient281);stroke:none"
                 id="path283" /></g></g></g></g></g><g
       id="g285"><g
         id="g287"
         clip-path="url(#clipPath291)"><g
           id="g293"
           clip-path="url(#clipPath297)"><g
             id="g299"><g
               id="g305"><path
                 d="M 0,0 H 1920 V 1080 H 0 Z"
                 style="fill:url(#linearGradient311);stroke:none"
                 id="path313" /></g></g></g></g></g><g
       id="g315"><g
         id="g317"
         clip-path="url(#clipPath321)"><g
           id="g323"
           clip-path="url(#clipPath327)"><g
             id="g329"><g
               id="g335"><path
                 d="M 0,0 H 1920 V 1080 H 0 Z"
                 style="fill:url(#linearGradient341);stroke:none"
                 id="path343" /></g></g></g></g></g><g
       id="g345"><g
         id="g347"
         clip-path="url(#clipPath351)"><path
           d="m 1433.651,593.4464 -0.01,-10.8063 11.393,-0.0128 -0.033,-10.723 -11.282,-0.0475 -0.064,-10.77 -12.727,-0.0289 0.067,10.9572 -11.369,-0.0581 0.067,10.8209 11.383,0.0137 -0.045,10.7092 12.615,-0.0544 z"
           style="fill:#ffffff;fill-opacity:1;fill-rule:nonzero;stroke:none"
           id="path353" /></g></g><g
       id="g355"><g
         id="g357"
         clip-path="url(#clipPath361)"><g
           id="g363"
           clip-path="url(#clipPath367)"><g
             id="g369"><g
               id="g375"><path
                 d="M 0,0 H 1920 V 1080 H 0 Z"
                 style="fill:url(#linearGradient381);stroke:none"
                 id="path383" /></g></g></g></g></g><g
       id="g385"><g
         id="g387"
         clip-path="url(#clipPath391)"><g
           id="g393"
           clip-path="url(#clipPath397)"><g
             id="g399"><g
               id="g405"><path
                 d="M 0,0 H 1920 V 1080 H 0 Z"
                 style="fill:url(#linearGradient411);stroke:none"
                 id="path413" /></g></g></g></g></g><g
       id="g415"><g
         id="g417"><g
           id="g423"><path
             d="m 1700.788,705.8593 h 154.8667 v 43.03494 H 1700.788 Z"
             style="fill:url(#linearGradient429);stroke:none"
             id="path431" /></g></g></g><g
       id="g433"><g
         id="g435"><g
           id="g441"><path
             d="m 1700.788,630.6176 h 154.8667 v 43.03494 H 1700.788 Z"
             style="fill:url(#linearGradient447);stroke:none"
             id="path449" /></g></g></g><g
       id="g451"><g
         id="g453"><g
           id="g459"><path
             d="m 1700.788,551.8293 h 154.8667 v 43.03494 H 1700.788 Z"
             style="fill:url(#linearGradient465);stroke:none"
             id="path467" /></g></g></g><g
       id="g469"><g
         id="g471"
         clip-path="url(#clipPath475)"><g
           id="g477"
           transform="translate(55.84548,385.7369)"><g
             aria-label="MyClinician"
             transform="scale(1,-1)"
             id="text481"
             style="font-size:150px;font-family:PosteramaText-Bold;-inkscape-font-specification:'PosteramaText-Bold, Normal';fill:#0071bb"><path
               d="m 11.25,-100.8 q 0,-5.7 3.6,-5.7 2.4,0 6.45,4.5 l 43.2,46.8 43.05,-46.8 q 4.35,-4.5 6.45,-4.5 3.6,0 3.6,5.7 v 96.9 q 0,3.9 -3.9,3.9 H 95.55 Q 91.5,0 91.5,-3.9 v -45.3 l -21.45,24.45 q -3.6,4.05 -5.7,4.05 -2.1,0 -5.55,-4.05 L 37.35,-49.2 V -3.9 Q 37.35,0 33.3,0 H 15.15 q -3.9,0 -3.9,-3.9 z"
               id="path286" /><path
               d="m 159.00001,-4.2 -29.1,-65.85 q -0.3,-1.2 -0.3,-1.65 0,-1.8 2.1,-1.8 h 20.7 q 3.9,0 4.95,3 l 15.6,36.45 15.15,-36.45 q 1.05,-3 4.95,-3 h 19.8 q 2.4,0 2.4,2.25 0,0.75 -0.45,1.95 l -44.4,100.35 q -1.65,3.45 -3.75,3.45 h -21.75 q -2.25,0 -2.25,-1.95 0,-0.9 0.3,-1.5 z"
               id="path288" /><path
               d="m 317.55,-18.15 q 0.9,1.35 0.9,2.55 0,1.5 -2.25,3.45 -16.95,14.1 -39.3,14.1 -24,0 -39.9,-15.3 -15.9,-15.3 -15.9,-38.55 0,-23.85 16.05,-39.45 16.2,-15.6 40.95,-15.6 21.9,0 38.7,14.1 1.8,1.5 1.8,2.85 0,1.2 -1.05,2.7 l -8.7,12.3 q -1.35,1.95 -2.85,1.95 -1.35,0 -3,-1.2 -12.15,-8.7 -25.05,-8.7 -13.05,0 -21.45,8.55 -8.4,8.4 -8.4,22.05 0,13.2 8.4,21.75 8.4,8.55 21.45,8.55 13.8,0 25.35,-8.85 1.8,-1.35 3,-1.35 1.35,0 2.7,1.8 z"
               id="path290" /><path
               d="m 331.95001,-108.6 q 0,-3.9 3.9,-3.9 h 17.25 q 4.05,0 4.05,3.9 V -3.9 q 0,3.9 -4.05,3.9 h -17.25 q -3.9,0 -3.9,-3.9 z"
               id="path292" /><path
               d="m 374.84999,-97.95 q 0,-6.3 3.9,-10.35 4.05,-4.2 10.5,-4.2 6.45,0 10.5,4.2 4.05,4.2 4.05,10.35 0,6.15 -4.05,10.35 -4.05,4.05 -10.5,4.05 -6.45,0 -10.5,-4.05 -3.9,-4.2 -3.9,-10.35 z m 1.8,28.35 q 0,-3.9 3.9,-3.9 h 17.25 q 4.05,0 4.05,3.9 v 65.7 q 0,3.9 -4.05,3.9 h -17.25 q -3.9,0 -3.9,-3.9 z"
               id="path294" /><path
               d="m 421.35001,-69.75 q 0,-3.75 3.75,-3.75 h 17.55 q 3.9,0 3.9,3.75 v 4.2 q 7.2,-9.45 20.1,-9.45 28.35,0 28.35,35.7 v 36.6 q 0,2.7 -2.55,2.7 h -19.95 q -2.7,0 -2.7,-2.7 v -33.75 q 0,-16.2 -11.55,-16.2 -11.7,0 -11.7,16.2 V -2.7 q 0,2.7 -2.55,2.7 h -19.95 q -2.7,0 -2.7,-2.7 z"
               id="path296" /><path
               d="m 511.95,-97.95 q 0,-6.3 3.9,-10.35 4.05,-4.2 10.5,-4.2 6.45,0 10.5,4.2 4.05,4.2 4.05,10.35 0,6.15 -4.05,10.35 -4.05,4.05 -10.5,4.05 -6.45,0 -10.5,-4.05 -3.9,-4.2 -3.9,-10.35 z m 1.8,28.35 q 0,-3.9 3.9,-3.9 h 17.25 q 4.05,0 4.05,3.9 v 65.7 q 0,3.9 -4.05,3.9 h -17.25 q -3.9,0 -3.9,-3.9 z"
               id="path298" /><path
               d="m 624.15001,-13.35 q 0.75,0.9 0.75,2.4 0,1.8 -1.5,2.85 -6.6,4.95 -13.35,7.5 -6.6,2.4 -16.2,2.4 -17.4,0 -28.65,-10.65 -11.25,-10.65 -11.25,-27.45 0,-17.4 11.1,-28.2 11.1,-10.8 28.35,-10.8 17.1,0 30.15,9.9 1.5,1.05 1.5,2.85 0,1.5 -0.75,2.4 l -7.95,12.6 q -1.35,1.8 -2.85,1.8 -1.2,0 -2.4,-0.9 -9.15,-6 -16.8,-6 -7.05,0 -10.8,4.5 -3.75,4.5 -3.75,11.55 0,6.9 3.75,11.4 3.9,4.35 10.95,4.35 9.15,0 16.65,-6 1.2,-0.9 2.4,-0.9 1.65,0 2.85,1.8 z"
               id="path300" /><path
               d="m 636.90001,-97.95 q 0,-6.3 3.9,-10.35 4.05,-4.2 10.5,-4.2 6.45,0 10.5,4.2 4.05,4.2 4.05,10.35 0,6.15 -4.05,10.35 -4.05,4.05 -10.5,4.05 -6.45,0 -10.5,-4.05 -3.9,-4.2 -3.9,-10.35 z m 1.8,28.35 q 0,-3.9 3.9,-3.9 h 17.25 q 4.05,0 4.05,3.9 v 65.7 q 0,3.9 -4.05,3.9 h -17.25 q -3.9,0 -3.9,-3.9 z"
               id="path302" /><path
               d="m 722.40002,-3.3 q -6.15,4.8 -16.5,4.8 -12.6,0 -19.95,-6.3 -7.35,-6.45 -7.35,-17.25 0,-10.8 7.35,-17.1 7.35,-6.3 19.95,-6.3 10.2,0 16.5,4.65 -0.9,-12.45 -15.45,-12.45 -1.5,0 -4.35,0.15 -2.85,0.15 -3.75,0.15 -1.8,0 -2.55,-0.75 -0.6,-0.75 -0.9,-2.85 l -1.5,-13.05 q -0.45,-3.9 3.45,-4.65 5.25,-1.05 12.45,-1.05 19.05,0 28.2,9.9 9.3,9.9 9.3,28.05 V -2.7 q 0,2.7 -2.55,2.7 h -19.65 q -2.7,0 -2.7,-2.7 z m -18.3,-18.75 q 0,4.35 2.55,6.9 2.7,2.4 6.75,2.4 3.9,0 6.6,-2.4 2.7,-2.55 2.7,-6.6 0,-4.5 -2.7,-6.9 -2.55,-2.55 -6.6,-2.55 -4.05,0 -6.75,2.55 -2.55,2.4 -2.55,6.6 z"
               id="path304" /><path
               d="m 766.04999,-69.75 q 0,-3.75 3.75,-3.75 h 17.55 q 3.9,0 3.9,3.75 v 4.2 q 7.2,-9.45 20.1,-9.45 28.35,0 28.35,35.7 v 36.6 q 0,2.7 -2.55,2.7 h -19.95 q -2.7,0 -2.7,-2.7 v -33.75 q 0,-16.2 -11.55,-16.2 -11.7,0 -11.7,16.2 V -2.7 q 0,2.7 -2.55,2.7 h -19.95 q -2.7,0 -2.7,-2.7 z"
               id="path306" /></g></g></g></g></g></svg>
