<?xml version="1.0" encoding="UTF-8" standalone="no"?>
<svg
   xmlns:dc="http://purl.org/dc/elements/1.1/"
   xmlns:cc="http://creativecommons.org/ns#"
   xmlns:rdf="http://www.w3.org/1999/02/22-rdf-syntax-ns#"
   xmlns:svg="http://www.w3.org/2000/svg"
   xmlns="http://www.w3.org/2000/svg"
   viewBox="0 0 689.33331 689.33331"
   height="689.33331"
   width="689.33331"
   xml:space="preserve"
   id="svg2"
   version="1.1"><metadata
     id="metadata8"><rdf:RDF><cc:Work
         rdf:about=""><dc:format>image/svg+xml</dc:format><dc:type
           rdf:resource="http://purl.org/dc/dcmitype/StillImage" /></cc:Work></rdf:RDF></metadata><defs
     id="defs6" /><g
     transform="matrix(1.3333333,0,0,-1.3333333,0,689.33333)"
     id="g10"><g
       transform="scale(0.1)"
       id="g12"><path
         id="path32"
         style="fill:#1c1b17;fill-opacity:1;fill-rule:evenodd;stroke:none"
         d="m 461.18,2328.03 c 250.484,0 453.543,-203.05 453.543,-453.54 0,-250.49 -203.059,-453.54 -453.543,-453.54 -250.485,0 -453.54328,203.05 -453.54328,453.54 0,250.49 203.05828,453.54 453.54328,453.54 z m 0,-73.7 c 209.781,0 379.84,-170.06 379.84,-379.84 0,-209.78 -170.059,-379.84 -379.84,-379.84 -209.778,0 -379.8402,170.06 -379.8402,379.84 0,209.78 170.0622,379.84 379.8402,379.84 z m -251.383,-458.29 -36.035,143.09 v -155.02 c 0,-8.57 -1.934,-15 -5.754,-19.29 -3.817,-4.29 -8.891,-6.44 -15.164,-6.44 -6.121,0 -11.141,2.15 -15.012,6.39 -3.871,4.23 -5.809,10.66 -5.809,19.34 v 177.72 c 0,9.83 2.567,16.42 7.637,19.87 5.125,3.4 12.031,5.13 20.66,5.13 h 14.121 c 8.473,0 14.59,-0.79 18.411,-2.3 3.816,-1.52 6.695,-4.29 8.523,-8.26 1.832,-3.98 3.922,-10.47 6.277,-19.46 l 32.633,-123.11 32.637,123.11 c 2.351,8.99 4.445,15.48 6.273,19.46 1.832,3.97 4.657,6.74 8.473,8.26 3.82,1.51 9.992,2.3 18.465,2.3 h 14.066 c 8.684,0 15.586,-1.73 20.711,-5.13 5.074,-3.45 7.637,-10.04 7.637,-19.87 v -177.72 c 0,-8.57 -1.934,-15 -5.75,-19.29 -3.82,-4.29 -8.945,-6.44 -15.324,-6.44 -6.016,0 -10.985,2.15 -14.856,6.44 -3.867,4.29 -5.804,10.72 -5.804,19.29 v 155.02 l -36.036,-143.09 c -2.351,-9.26 -4.238,-16.11 -5.754,-20.45 -1.46,-4.29 -4.183,-8.26 -8.156,-11.82 -4.031,-3.61 -9.519,-5.39 -16.582,-5.39 -5.336,0 -9.828,1.15 -13.492,3.45 -3.66,2.31 -6.535,5.23 -8.578,8.79 -2.039,3.61 -3.66,7.53 -4.809,11.87 -1.203,4.34 -2.406,8.9 -3.609,13.55 z m 262.387,194.55 c 23.324,0 43.304,-4.7 59.988,-14.17 16.683,-9.41 29.34,-22.85 37.918,-40.27 8.574,-17.42 12.863,-37.86 12.863,-61.35 0,-17.36 -2.351,-33.16 -7.058,-47.33 -4.707,-14.22 -11.715,-26.52 -21.129,-36.92 -9.414,-10.41 -20.922,-18.36 -34.625,-23.9 -13.703,-5.5 -29.336,-8.27 -47.016,-8.27 -17.574,0 -33.312,2.83 -47.172,8.53 -13.914,5.65 -25.473,13.65 -34.781,23.95 -9.309,10.3 -16.317,22.7 -21.078,37.24 -4.758,14.49 -7.11,30.17 -7.11,47.01 0,17.27 2.457,33.06 7.422,47.5 4.969,14.38 12.137,26.61 21.551,36.76 9.363,10.09 20.813,17.83 34.309,23.17 13.441,5.39 28.765,8.05 45.918,8.05 z m 64.644,-115.48 c 0,16.43 -2.668,30.71 -7.953,42.79 -5.332,12.03 -12.918,21.12 -22.746,27.35 -9.836,6.17 -21.184,9.26 -33.945,9.26 -9.047,0 -17.469,-1.73 -25.157,-5.13 -7.742,-3.45 -14.382,-8.42 -19.925,-14.95 -5.543,-6.54 -9.938,-14.91 -13.18,-25.06 -3.188,-10.2 -4.809,-21.6 -4.809,-34.26 0,-12.81 1.621,-24.31 4.809,-34.67 3.242,-10.3 7.793,-18.88 13.652,-25.68 5.856,-6.8 12.602,-11.87 20.184,-15.22 7.637,-3.4 15.953,-5.07 25.055,-5.07 11.66,0 22.332,2.93 32.109,8.73 9.73,5.81 17.469,14.8 23.277,26.99 5.75,12.13 8.629,27.14 8.629,44.92 z m 122.485,88.18 87.445,-132.42 v 133.68 c 0,8.68 1.883,15.16 5.594,19.5 3.714,4.34 8.734,6.54 15.066,6.54 6.48,0 11.66,-2.14 15.426,-6.48 3.765,-4.34 5.648,-10.88 5.648,-19.56 v -176.62 c 0,-19.72 -8.156,-29.55 -24.476,-29.55 -4.078,0 -7.739,0.58 -11.036,1.78 -3.242,1.15 -6.328,3.04 -9.152,5.55 -2.875,2.56 -5.492,5.54 -7.949,8.99 -2.457,3.4 -4.914,6.9 -7.375,10.46 l -85.301,130.75 v -131.48 c 0,-8.58 -1.988,-15.06 -5.961,-19.46 -4.027,-4.39 -9.152,-6.59 -15.375,-6.59 -6.437,0 -11.613,2.2 -15.484,6.65 -3.918,4.44 -5.856,10.93 -5.856,19.4 v 173.21 c 0,7.38 0.836,13.13 2.457,17.32 1.938,4.6 5.18,8.36 9.676,11.29 4.496,2.88 9.363,4.34 14.539,4.34 4.133,0 7.637,-0.68 10.512,-1.98 2.93,-1.36 5.492,-3.14 7.687,-5.39 2.2,-2.25 4.45,-5.13 6.747,-8.73 2.304,-3.56 4.71,-7.28 7.168,-11.2" /><path
         id="path34"
         style="fill:#1c1b17;fill-opacity:1;fill-rule:evenodd;stroke:none"
         d="m 1878.5,2328.03 c 250.49,0 453.54,-203.05 453.54,-453.54 0,-250.49 -203.05,-453.54 -453.54,-453.54 -250.48,0 -453.54,203.05 -453.54,453.54 0,250.49 203.06,453.54 453.54,453.54 z m 0,-73.7 c 209.78,0 379.84,-170.06 379.84,-379.84 0,-209.78 -170.06,-379.84 -379.84,-379.84 -209.78,0 -379.84,170.06 -379.84,379.84 0,209.78 170.06,379.84 379.84,379.84 z m -125.02,-305.16 h -49.63 V 1786.1 c 0,-9.41 -2.09,-16.37 -6.33,-20.92 -4.18,-4.55 -9.62,-6.8 -16.27,-6.8 -6.74,0 -12.28,2.3 -16.52,6.91 -4.23,4.6 -6.38,11.5 -6.38,20.81 v 163.07 h -49.64 c -7.78,0 -13.54,1.73 -17.3,5.13 -3.77,3.45 -5.7,8 -5.7,13.65 0,5.8 1.98,10.41 5.9,13.8 3.93,3.41 9.63,5.08 17.1,5.08 h 144.77 c 7.9,0 13.7,-1.73 17.57,-5.23 3.82,-3.51 5.76,-8.05 5.76,-13.65 0,-5.65 -1.99,-10.2 -5.86,-13.65 -3.87,-3.4 -9.68,-5.13 -17.47,-5.13 z m 28.5,-94.14 v 108 c 0,9.2 2.1,16.06 6.23,20.66 4.13,4.6 9.57,6.9 16.32,6.9 7.01,0 12.6,-2.3 16.73,-6.9 4.13,-4.6 6.22,-11.51 6.22,-20.66 v -110.51 c 0,-12.55 1.42,-23.06 4.24,-31.48 2.77,-8.42 7.8,-14.96 14.91,-19.61 7.16,-4.66 17.15,-6.96 30.02,-6.96 17.78,0 30.33,4.71 37.71,14.17 7.37,9.47 11.03,23.8 11.03,42.99 v 111.4 c 0,9.26 2.04,16.22 6.12,20.77 4.08,4.54 9.57,6.79 16.42,6.79 6.8,0 12.34,-2.25 16.58,-6.79 4.24,-4.55 6.38,-11.51 6.38,-20.77 v -108 c 0,-17.57 -1.72,-32.26 -5.12,-43.98 -3.45,-11.77 -9.89,-22.07 -19.41,-30.96 -8.16,-7.53 -17.67,-13.03 -28.5,-16.53 -10.82,-3.45 -23.48,-5.18 -37.97,-5.18 -17.26,0 -32.11,1.89 -44.61,5.6 -12.45,3.71 -22.59,9.52 -30.44,17.31 -7.9,7.79 -13.65,17.84 -17.36,30.02 -3.66,12.19 -5.5,26.78 -5.5,43.72 z m 364.17,96.65 h -102.51 v -55.23 h 94.4 c 6.96,0 12.14,-1.56 15.53,-4.65 3.45,-3.09 5.13,-7.22 5.13,-12.29 0,-5.07 -1.68,-9.26 -5.02,-12.45 -3.4,-3.19 -8.58,-4.81 -15.64,-4.81 h -94.4 v -64.01 h 106.01 c 7.17,0 12.55,-1.68 16.16,-4.97 3.66,-3.3 5.49,-7.74 5.49,-13.23 0,-5.29 -1.83,-9.63 -5.49,-12.92 -3.61,-3.3 -8.99,-4.97 -16.16,-4.97 h -123.63 c -9.89,0 -17,2.19 -21.34,6.59 -4.34,4.39 -6.54,11.51 -6.54,21.28 v 168.93 c 0,6.54 0.99,11.87 2.93,16.01 1.93,4.13 4.97,7.16 9.1,9.04 4.13,1.89 9.41,2.83 15.85,2.83 h 120.13 c 7.27,0 12.65,-1.62 16.16,-4.81 3.5,-3.25 5.28,-7.48 5.28,-12.66 0,-5.33 -1.78,-9.62 -5.28,-12.86 -3.51,-3.2 -8.89,-4.82 -16.16,-4.82" /><path
         id="path36"
         style="fill:#1c1b17;fill-opacity:1;fill-rule:evenodd;stroke:none"
         d="m 3295.82,2328.03 c 250.49,0 453.55,-203.05 453.55,-453.54 0,-250.49 -203.06,-453.54 -453.55,-453.54 -250.48,0 -453.53,203.05 -453.53,453.54 0,250.49 203.05,453.54 453.53,453.54 z m 0,-73.7 c 209.79,0 379.85,-170.06 379.85,-379.84 0,-209.78 -170.06,-379.84 -379.85,-379.84 -209.77,0 -379.84,170.06 -379.84,379.84 0,209.78 170.07,379.84 379.84,379.84 z m -157.36,-456.72 -36.35,134.62 -36.77,-134.62 c -2.88,-10.25 -5.12,-17.57 -6.8,-22.02 -1.67,-4.39 -4.65,-8.42 -8.84,-11.93 -4.18,-3.5 -9.72,-5.28 -16.68,-5.28 -5.65,0 -10.25,1.05 -13.86,3.14 -3.66,2.09 -6.59,5.07 -8.84,8.89 -2.25,3.82 -4.08,8.37 -5.49,13.65 -1.47,5.23 -2.72,10.1 -3.87,14.59 l -37.34,151.2 c -2.25,8.79 -3.4,15.48 -3.4,20.09 0,5.8 2.04,10.72 6.12,14.69 4.08,3.98 9.15,5.96 15.16,5.96 8.32,0 13.86,-2.66 16.74,-7.95 2.82,-5.33 5.33,-13.02 7.48,-23.17 l 29.44,-131.11 32.95,122.69 c 2.46,9.42 4.66,16.59 6.59,21.45 1.94,4.91 5.13,9.15 9.52,12.71 4.39,3.61 10.35,5.38 17.89,5.38 7.68,0 13.65,-1.88 17.89,-5.59 4.23,-3.71 7.16,-7.8 8.78,-12.19 1.62,-4.39 3.82,-11.61 6.59,-21.76 l 33.26,-122.69 29.45,131.11 c 1.41,6.85 2.77,12.24 4.03,16.11 1.3,3.87 3.5,7.38 6.59,10.41 3.13,3.09 7.63,4.6 13.59,4.6 5.91,0 10.93,-1.98 15.07,-5.91 4.13,-3.92 6.22,-8.84 6.22,-14.74 0,-4.19 -1.1,-10.88 -3.35,-20.09 l -37.39,-151.2 c -2.57,-10.2 -4.71,-17.67 -6.38,-22.44 -1.68,-4.75 -4.55,-8.88 -8.58,-12.44 -4.03,-3.61 -9.73,-5.39 -17.1,-5.39 -6.96,0 -12.5,1.73 -16.69,5.23 -4.18,3.45 -7.11,7.38 -8.73,11.72 -1.67,4.34 -3.92,11.77 -6.9,22.28 z m 261.29,154.07 h -102.51 v -55.23 h 94.4 c 6.96,0 12.13,-1.56 15.54,-4.65 3.45,-3.09 5.12,-7.22 5.12,-12.29 0,-5.07 -1.67,-9.26 -5.02,-12.45 -3.4,-3.19 -8.58,-4.81 -15.64,-4.81 h -94.4 v -64.01 h 106.01 c 7.16,0 12.55,-1.68 16.16,-4.97 3.66,-3.3 5.49,-7.74 5.49,-13.23 0,-5.29 -1.83,-9.63 -5.49,-12.92 -3.61,-3.3 -9,-4.97 -16.16,-4.97 h -123.63 c -9.89,0 -17,2.19 -21.34,6.59 -4.34,4.39 -6.54,11.51 -6.54,21.28 v 168.93 c 0,6.54 0.99,11.87 2.93,16.01 1.94,4.13 4.97,7.16 9.1,9.04 4.13,1.89 9.41,2.83 15.85,2.83 h 120.13 c 7.27,0 12.66,-1.62 16.16,-4.81 3.5,-3.25 5.28,-7.48 5.28,-12.66 0,-5.33 -1.78,-9.62 -5.28,-12.86 -3.5,-3.2 -8.89,-4.82 -16.16,-4.82 z m 67.52,35.15 h 59.3 c 15.43,0 28.66,-1.41 39.7,-4.29 11.09,-2.88 21.08,-8.26 30.07,-16.11 23.38,-20.03 35.09,-50.52 35.09,-91.37 0,-13.49 -1.14,-25.78 -3.5,-36.92 -2.35,-11.14 -6.01,-21.18 -10.88,-30.12 -4.91,-8.95 -11.19,-16.95 -18.88,-24.01 -6.01,-5.38 -12.6,-9.73 -19.77,-12.97 -7.16,-3.29 -14.85,-5.6 -23.06,-6.9 -8.21,-1.31 -17.52,-1.99 -27.82,-1.99 h -59.31 c -8.26,0 -14.49,1.25 -18.73,3.76 -4.18,2.52 -6.9,6.02 -8.15,10.57 -1.31,4.55 -1.94,10.46 -1.94,17.68 v 164.79 c 0,9.78 2.2,16.89 6.59,21.29 4.4,4.39 11.51,6.59 21.29,6.59 z m 17.62,-36.09 v -152.5 h 34.52 c 7.53,0 13.49,0.2 17.78,0.62 4.29,0.42 8.74,1.41 13.34,3.03 4.6,1.68 8.58,3.98 11.92,6.91 15.22,12.86 22.86,35.04 22.86,66.52 0,22.18 -3.35,38.81 -10.04,49.85 -6.7,11.03 -14.96,18.04 -24.74,21.08 -9.83,2.97 -21.71,4.49 -35.57,4.49 h -30.07" /><path
         id="path38"
         style="fill:#1c1b17;fill-opacity:1;fill-rule:evenodd;stroke:none"
         d="m 4713.15,2328.03 c 250.49,0 453.55,-203.05 453.55,-453.54 0,-250.49 -203.06,-453.54 -453.55,-453.54 -250.48,0 -453.54,203.05 -453.54,453.54 0,250.49 203.06,453.54 453.54,453.54 z m 0,-73.7 c 209.78,0 379.84,-170.06 379.84,-379.84 0,-209.78 -170.06,-379.84 -379.84,-379.84 -209.78,0 -379.84,170.06 -379.84,379.84 0,209.78 170.06,379.84 379.84,379.84 z M 4580.1,1949.17 h -49.63 V 1786.1 c 0,-9.41 -2.09,-16.37 -6.33,-20.92 -4.19,-4.55 -9.62,-6.8 -16.26,-6.8 -6.75,0 -12.29,2.3 -16.53,6.91 -4.24,4.6 -6.39,11.5 -6.39,20.81 v 163.07 h -49.62 c -7.8,0 -13.55,1.73 -17.32,5.13 -3.76,3.45 -5.7,8 -5.7,13.65 0,5.8 1.99,10.41 5.91,13.8 3.93,3.41 9.63,5.08 17.11,5.08 h 144.76 c 7.9,0 13.7,-1.73 17.57,-5.23 3.82,-3.51 5.76,-8.05 5.76,-13.65 0,-5.65 -1.99,-10.2 -5.86,-13.65 -3.87,-3.4 -9.68,-5.13 -17.47,-5.13 z m 74.01,13.86 v -64.38 h 98.21 v 64.38 c 0,9.15 2.09,16.06 6.23,20.66 4.13,4.6 9.57,6.9 16.31,6.9 6.8,0 12.35,-2.25 16.58,-6.79 4.24,-4.55 6.38,-11.46 6.38,-20.77 V 1786.1 c 0,-9.31 -2.14,-16.21 -6.43,-20.81 -4.29,-4.61 -9.83,-6.91 -16.53,-6.91 -6.85,0 -12.34,2.3 -16.42,6.96 -4.08,4.66 -6.12,11.56 -6.12,20.76 v 75.52 h -98.21 v -75.52 c 0,-9.31 -2.15,-16.21 -6.44,-20.81 -4.29,-4.61 -9.83,-6.91 -16.53,-6.91 -6.85,0 -12.34,2.3 -16.42,6.96 -4.08,4.66 -6.12,11.56 -6.12,20.76 v 176.93 c 0,9.2 2.04,16.06 6.07,20.66 4.03,4.6 9.52,6.9 16.47,6.9 6.81,0 12.35,-2.25 16.58,-6.79 4.24,-4.55 6.39,-11.51 6.39,-20.77 z m 170.96,-108 v 108 c 0,9.2 2.09,16.06 6.22,20.66 4.14,4.6 9.57,6.9 16.32,6.9 7.01,0 12.61,-2.3 16.74,-6.9 4.13,-4.6 6.22,-11.51 6.22,-20.66 v -110.51 c 0,-12.55 1.41,-23.06 4.24,-31.48 2.77,-8.42 7.79,-14.96 14.9,-19.61 7.17,-4.66 17.16,-6.96 30.02,-6.96 17.79,0 30.34,4.71 37.71,14.17 7.38,9.47 11.04,23.8 11.04,42.99 v 111.4 c 0,9.26 2.04,16.22 6.11,20.77 4.09,4.54 9.58,6.79 16.43,6.79 6.8,0 12.34,-2.25 16.58,-6.79 4.23,-4.55 6.38,-11.51 6.38,-20.77 v -108 c 0,-17.57 -1.73,-32.26 -5.13,-43.98 -3.45,-11.77 -9.88,-22.07 -19.4,-30.96 -8.16,-7.53 -17.68,-13.03 -28.5,-16.53 -10.83,-3.45 -23.49,-5.18 -37.97,-5.18 -17.26,0 -32.12,1.89 -44.62,5.6 -12.44,3.71 -22.59,9.52 -30.43,17.31 -7.9,7.79 -13.65,17.84 -17.37,30.02 -3.66,12.19 -5.49,26.78 -5.49,43.72" /><path
         id="path40"
         style="fill:#1c1b17;fill-opacity:1;fill-rule:evenodd;stroke:none"
         d="m 461.18,910.707 c 250.488,0 453.543,-203.051 453.543,-453.539 C 914.723,206.684 711.668,3.625 461.18,3.625 210.699,3.625 7.64063,206.684 7.64063,457.168 7.64063,707.656 210.699,910.707 461.18,910.707 Z m 0,-73.695 c 209.781,0 379.843,-170.063 379.843,-379.844 0,-209.781 -170.062,-379.8438 -379.843,-379.8438 -209.778,0 -379.8402,170.0628 -379.8402,379.8438 0,209.781 170.0622,379.844 379.8402,379.844 z M 386.523,534.359 h -89.64 v -57.425 h 74.945 c 6.906,0 12.133,-1.567 15.535,-4.653 3.399,-3.14 5.125,-7.324 5.125,-12.504 0,-5.226 -1.726,-9.359 -5.179,-12.445 -3.504,-3.082 -8.68,-4.602 -15.481,-4.602 h -74.945 v -73.953 c 0,-9.414 -2.145,-16.367 -6.383,-20.918 -4.234,-4.55 -9.672,-6.796 -16.266,-6.796 -6.746,0 -12.234,2.296 -16.472,6.902 -4.235,4.601 -6.379,11.555 -6.379,20.812 v 172.852 c 0,6.539 0.992,11.871 2.93,16.004 1.933,4.133 4.968,7.164 9.097,9.051 4.133,1.879 9.414,2.82 15.848,2.82 h 107.265 c 7.27,0 12.661,-1.621 16.161,-4.813 3.504,-3.238 5.281,-7.476 5.281,-12.652 0,-5.336 -1.777,-9.625 -5.281,-12.867 -3.5,-3.192 -8.891,-4.813 -16.161,-4.813 z m 94.508,-93.511 h -15.953 v -72.071 c 0,-9.515 -2.09,-16.472 -6.273,-20.968 -4.188,-4.5 -9.68,-6.746 -16.371,-6.746 -7.274,0 -12.918,2.351 -16.895,7.058 -3.976,4.707 -5.961,11.559 -5.961,20.656 v 172.852 c 0,9.781 2.195,16.891 6.59,21.285 4.395,4.395 11.504,6.59 21.285,6.59 h 74.004 c 10.199,0 18.934,-0.418 26.199,-1.305 7.274,-0.89 13.809,-2.617 19.614,-5.285 7.062,-2.976 13.289,-7.215 18.722,-12.707 5.391,-5.543 9.52,-11.977 12.293,-19.246 2.824,-7.324 4.238,-15.063 4.238,-23.273 0,-16.735 -4.71,-30.125 -14.175,-40.168 -9.465,-9.989 -23.797,-17.102 -42.989,-21.286 8.051,-4.289 15.793,-10.617 23.168,-18.984 7.321,-8.367 13.911,-17.312 19.664,-26.727 5.754,-9.464 10.25,-17.937 13.493,-25.574 3.191,-7.582 4.812,-12.812 4.812,-15.687 0,-2.93 -0.941,-5.86 -2.824,-8.785 -1.883,-2.934 -4.445,-5.231 -7.738,-6.907 -3.246,-1.672 -7.063,-2.507 -11.352,-2.507 -5.07,0 -9.359,1.199 -12.863,3.605 -3.453,2.406 -6.434,5.437 -8.946,9.102 -2.511,3.66 -5.91,9.097 -10.199,16.214 l -18.25,30.332 c -6.539,11.086 -12.398,19.559 -17.523,25.364 -5.176,5.859 -10.406,9.836 -15.742,11.976 -5.282,2.149 -11.977,3.192 -20.028,3.192 z m 26.043,94.453 H 465.078 V 473.48 h 40.738 c 10.934,0 20.141,0.946 27.618,2.829 7.425,1.882 13.129,5.125 17.05,9.675 3.922,4.547 5.911,10.825 5.911,18.774 0,6.277 -1.571,11.769 -4.762,16.527 -3.137,4.758 -7.531,8.313 -13.18,10.668 -5.281,2.25 -15.742,3.348 -31.379,3.348 z M 625.48,368.777 v 176.93 c 0,9.207 2.09,16.059 6.278,20.66 4.183,4.606 9.621,6.903 16.262,6.903 6.8,0 12.343,-2.247 16.582,-6.797 4.234,-4.551 6.378,-11.453 6.378,-20.766 v -176.93 c 0,-9.308 -2.144,-16.211 -6.378,-20.812 -4.239,-4.606 -9.782,-6.902 -16.582,-6.902 -6.536,0 -11.922,2.296 -16.161,6.953 -4.234,4.656 -6.379,11.558 -6.379,20.761" /><path
         id="path42"
         style="fill:#1c1b17;fill-opacity:1;fill-rule:evenodd;stroke:none"
         d="m 1878.5,910.707 c 250.49,0 453.55,-203.051 453.55,-453.539 0,-250.484 -203.06,-453.543 -453.55,-453.543 -250.48,0 -453.54,203.059 -453.54,453.543 0,250.488 203.06,453.539 453.54,453.539 z m 0,-73.695 c 209.79,0 379.85,-170.063 379.85,-379.844 0,-209.781 -170.06,-379.8438 -379.85,-379.8438 -209.77,0 -379.84,170.0628 -379.84,379.8438 0,209.781 170.07,379.844 379.84,379.844 z m -91.81,-424.824 c 0,-13.547 -3.5,-25.731 -10.51,-36.559 -6.95,-10.824 -17.21,-19.297 -30.7,-25.418 -13.49,-6.117 -29.5,-9.148 -47.96,-9.148 -22.17,0 -40.48,4.183 -54.86,12.496 -10.2,6.015 -18.46,14.07 -24.84,24.113 -6.38,10.039 -9.57,19.82 -9.57,29.336 0,5.496 1.93,10.199 5.75,14.176 3.82,3.921 8.68,5.859 14.59,5.859 4.81,0 8.84,-1.52 12.14,-4.605 3.34,-3.032 6.17,-7.583 8.52,-13.649 2.82,-7.113 5.96,-13.125 9.26,-17.887 3.34,-4.812 8,-8.785 14.01,-11.925 6.07,-3.086 13.97,-4.653 23.8,-4.653 13.44,0 24.42,3.137 32.84,9.414 8.42,6.274 12.66,14.117 12.66,23.532 0,7.48 -2.25,13.546 -6.8,18.152 -4.55,4.652 -10.46,8.207 -17.68,10.668 -7.16,2.457 -16.84,5.07 -28.86,7.844 -16.11,3.765 -29.66,8.211 -40.49,13.23 -10.87,5.074 -19.51,11.977 -25.88,20.711 -6.39,8.734 -9.57,19.563 -9.57,32.586 0,12.34 3.34,23.324 10.09,32.945 6.75,9.574 16.53,16.946 29.29,22.125 12.76,5.176 27.77,7.739 45.03,7.739 13.75,0 25.68,-1.727 35.77,-5.125 10.04,-3.454 18.41,-8 25.05,-13.649 6.59,-5.648 11.46,-11.609 14.54,-17.836 3.03,-6.222 4.6,-12.34 4.6,-18.254 0,-5.383 -1.93,-10.301 -5.75,-14.64 -3.82,-4.34 -8.63,-6.489 -14.33,-6.489 -5.23,0 -9.15,1.309 -11.87,3.875 -2.72,2.614 -5.65,6.903 -8.79,12.813 -4.13,8.473 -8.99,15.113 -14.75,19.871 -5.7,4.762 -14.9,7.113 -27.61,7.113 -11.72,0 -21.24,-2.562 -28.4,-7.742 -7.22,-5.176 -10.82,-11.348 -10.82,-18.617 0,-4.496 1.2,-8.367 3.65,-11.66 2.46,-3.246 5.86,-6.067 10.15,-8.422 4.29,-2.356 8.63,-4.184 13.02,-5.543 4.4,-1.309 11.66,-3.242 21.76,-5.805 12.66,-2.984 24.16,-6.226 34.41,-9.836 10.26,-3.554 18.99,-7.894 26.21,-13.019 7.21,-5.075 12.81,-11.563 16.84,-19.352 4.02,-7.844 6.06,-17.414 6.06,-28.765 z m 160.41,-41.891 -10.72,28.187 h -91.32 l -10.72,-28.765 c -4.18,-11.242 -7.74,-18.828 -10.72,-22.75 -2.93,-3.922 -7.8,-5.906 -14.54,-5.906 -5.7,0 -10.78,2.089 -15.17,6.273 -4.39,4.184 -6.59,8.945 -6.59,14.227 0,3.085 0.52,6.273 1.52,9.519 1.04,3.293 2.72,7.789 5.07,13.648 l 57.43,145.813 c 1.67,4.184 3.61,9.203 5.91,15.062 2.3,5.911 4.76,10.774 7.37,14.641 2.62,3.875 6.02,7.012 10.25,9.414 4.24,2.406 9.47,3.61 15.69,3.61 6.38,0 11.66,-1.204 15.9,-3.61 4.24,-2.402 7.64,-5.488 10.25,-9.254 2.61,-3.765 4.81,-7.847 6.59,-12.187 1.78,-4.34 4.08,-10.149 6.8,-17.364 l 58.68,-144.921 c 4.6,-11.036 6.9,-19.039 6.9,-24.059 0,-5.176 -2.14,-9.988 -6.48,-14.332 -4.34,-4.34 -9.62,-6.48 -15.74,-6.48 -3.56,0 -6.64,0.625 -9.21,1.933 -2.51,1.254 -4.65,2.981 -6.43,5.176 -1.73,2.199 -3.56,5.598 -5.54,10.098 -2.05,4.546 -3.72,8.574 -5.18,12.027 z m -90.06,62.391 h 67.1 l -33.84,92.57 z m 268.4,99.164 h -49.63 V 368.777 c 0,-9.414 -2.1,-16.367 -6.33,-20.918 -4.19,-4.55 -9.62,-6.796 -16.27,-6.796 -6.75,0 -12.29,2.296 -16.52,6.902 -4.24,4.601 -6.39,11.504 -6.39,20.812 v 163.075 h -49.63 c -7.79,0 -13.54,1.726 -17.31,5.125 -3.76,3.453 -5.7,8 -5.7,13.648 0,5.805 1.99,10.406 5.91,13.805 3.93,3.402 9.63,5.074 17.1,5.074 h 144.77 c 7.9,0 13.7,-1.727 17.57,-5.227 3.82,-3.504 5.76,-8.054 5.76,-13.652 0,-5.648 -1.99,-10.195 -5.86,-13.648 -3.87,-3.399 -9.68,-5.125 -17.47,-5.125" /><path
         id="path44"
         style="fill:#1c1b17;fill-opacity:1;fill-rule:evenodd;stroke:none"
         d="m 3295.83,910.707 c 250.48,0 453.54,-203.051 453.54,-453.539 0,-250.484 -203.06,-453.543 -453.54,-453.543 -250.49,0 -453.54,203.059 -453.54,453.543 0,250.488 203.05,453.539 453.54,453.539 z m 0,-73.695 c 209.78,0 379.84,-170.063 379.84,-379.844 0,-209.781 -170.06,-379.8438 -379.84,-379.8438 -209.78,0 -379.84,170.0628 -379.84,379.8438 0,209.781 170.06,379.844 379.84,379.844 z M 3174.2,412.188 c 0,-13.547 -3.5,-25.731 -10.51,-36.559 -6.95,-10.824 -17.21,-19.297 -30.7,-25.418 -13.49,-6.117 -29.5,-9.148 -47.96,-9.148 -22.17,0 -40.48,4.183 -54.86,12.496 -10.2,6.015 -18.46,14.07 -24.84,24.113 -6.38,10.039 -9.57,19.82 -9.57,29.336 0,5.496 1.93,10.199 5.75,14.176 3.82,3.921 8.68,5.859 14.59,5.859 4.81,0 8.84,-1.52 12.14,-4.605 3.34,-3.032 6.17,-7.583 8.52,-13.649 2.82,-7.113 5.96,-13.125 9.26,-17.887 3.34,-4.812 8,-8.785 14.01,-11.925 6.07,-3.086 13.97,-4.653 23.8,-4.653 13.44,0 24.42,3.137 32.85,9.414 8.41,6.274 12.65,14.117 12.65,23.532 0,7.48 -2.25,13.546 -6.8,18.152 -4.55,4.652 -10.46,8.207 -17.67,10.668 -7.17,2.457 -16.85,5.07 -28.88,7.844 -16.1,3.765 -29.65,8.211 -40.48,13.23 -10.87,5.074 -19.5,11.977 -25.88,20.711 -6.39,8.734 -9.57,19.563 -9.57,32.586 0,12.34 3.34,23.324 10.09,32.945 6.75,9.574 16.52,16.946 29.29,22.125 12.76,5.176 27.77,7.739 45.03,7.739 13.75,0 25.68,-1.727 35.77,-5.125 10.04,-3.454 18.41,-8 25.05,-13.649 6.59,-5.648 11.46,-11.609 14.54,-17.836 3.04,-6.222 4.61,-12.34 4.61,-18.254 0,-5.383 -1.94,-10.301 -5.76,-14.64 -3.82,-4.34 -8.63,-6.489 -14.33,-6.489 -5.23,0 -9.15,1.309 -11.87,3.875 -2.72,2.614 -5.65,6.903 -8.79,12.813 -4.13,8.473 -8.99,15.113 -14.75,19.871 -5.7,4.762 -14.9,7.113 -27.61,7.113 -11.71,0 -21.23,-2.562 -28.4,-7.742 -7.22,-5.176 -10.83,-11.348 -10.83,-18.617 0,-4.496 1.21,-8.367 3.66,-11.66 2.46,-3.246 5.86,-6.067 10.15,-8.422 4.29,-2.356 8.63,-4.184 13.03,-5.543 4.39,-1.309 11.66,-3.242 21.75,-5.805 12.66,-2.984 24.16,-6.226 34.41,-9.836 10.26,-3.554 18.99,-7.894 26.21,-13.019 7.22,-5.075 12.81,-11.563 16.84,-19.352 4.02,-7.844 6.06,-17.414 6.06,-28.765 z m 16.95,25.519 v 108 c 0,9.207 2.09,16.059 6.23,20.66 4.13,4.606 9.57,6.903 16.31,6.903 7.01,0 12.61,-2.297 16.74,-6.903 4.13,-4.601 6.22,-11.504 6.22,-20.66 V 435.199 c 0,-12.551 1.41,-23.066 4.24,-31.484 2.77,-8.422 7.79,-14.957 14.9,-19.613 7.17,-4.653 17.16,-6.957 30.02,-6.957 17.78,0 30.33,4.71 37.71,14.175 7.37,9.469 11.03,23.797 11.03,42.989 v 111.398 c 0,9.258 2.04,16.215 6.13,20.766 4.08,4.55 9.57,6.797 16.42,6.797 6.79,0 12.34,-2.247 16.58,-6.797 4.23,-4.551 6.37,-11.508 6.37,-20.766 v -108 c 0,-17.57 -1.72,-32.266 -5.12,-43.98 -3.45,-11.766 -9.88,-22.071 -19.4,-30.965 -8.16,-7.528 -17.68,-13.02 -28.5,-16.524 -10.83,-3.453 -23.49,-5.175 -37.98,-5.175 -17.25,0 -32.1,1.882 -44.6,5.593 -12.45,3.715 -22.6,9.52 -30.45,17.313 -7.89,7.793 -13.64,17.832 -17.36,30.019 -3.66,12.184 -5.49,26.778 -5.49,43.719 z m 275.56,108.262 87.45,-132.418 v 133.676 c 0,8.679 1.88,15.168 5.6,19.507 3.71,4.34 8.73,6.536 15.06,6.536 6.48,0 11.66,-2.141 15.43,-6.485 3.77,-4.34 5.65,-10.879 5.65,-19.558 V 370.609 c 0,-19.718 -8.16,-29.546 -24.48,-29.546 -4.08,0 -7.74,0.574 -11.03,1.777 -3.25,1.148 -6.33,3.031 -9.16,5.543 -2.87,2.562 -5.49,5.543 -7.94,8.996 -2.47,3.398 -4.92,6.902 -7.38,10.457 l -85.3,130.75 V 367.105 c 0,-8.578 -1.99,-15.062 -5.97,-19.457 -4.02,-4.394 -9.15,-6.585 -15.37,-6.585 -6.43,0 -11.61,2.191 -15.48,6.64 -3.92,4.445 -5.86,10.93 -5.86,19.402 v 173.219 c 0,7.371 0.84,13.125 2.46,17.309 1.93,4.601 5.18,8.367 9.68,11.297 4.49,2.879 9.36,4.34 14.54,4.34 4.12,0 7.63,-0.68 10.51,-1.989 2.92,-1.355 5.49,-3.136 7.68,-5.383 2.2,-2.253 4.45,-5.125 6.75,-8.734 2.3,-3.559 4.71,-7.273 7.16,-11.195" /></g></g></svg>