<?xml version="1.0" encoding="UTF-8" standalone="no"?>
<!-- Created with Inkscape (http://www.inkscape.org/) -->

<svg
   version="1.1"
   id="svg25"
   xml:space="preserve"
   width="2560"
   height="1440"
   viewBox="0 0 2560 1440"
   xmlns="http://www.w3.org/2000/svg"
   xmlns:svg="http://www.w3.org/2000/svg"><defs
     id="defs29"><clipPath
       clipPathUnits="userSpaceOnUse"
       id="clipPath41"><path
         d="M 0,0 H 1920 V 1080 H 0 Z"
         id="path39" /></clipPath><clipPath
       clipPathUnits="userSpaceOnUse"
       id="clipPath51"><path
         d="m 64.3526,558.6565 0.01472,-116.9599 52.46768,-0.003 0.1366,25.6498 -52.619,91.3129 z"
         id="path49" /></clipPath><clipPath
       clipPathUnits="userSpaceOnUse"
       id="clipPath57"><path
         d="m 64.3526,558.6565 0.01472,-116.9599 52.46768,-0.003 0.1366,25.6498 -52.619,91.3129 z"
         id="path55" /></clipPath><linearGradient
       x1="0"
       y1="0"
       x2="100"
       y2="0"
       gradientUnits="userSpaceOnUse"
       gradientTransform="matrix(0.5461895,0,0,-1.189627,63.3526,500.1751)"
       spreadMethod="pad"
       id="linearGradient71"><stop
         style="stop-opacity:1;stop-color:#56c1ff"
         offset="0"
         id="stop67" /><stop
         style="stop-opacity:1;stop-color:#0171bc"
         offset="1"
         id="stop69" /></linearGradient><clipPath
       clipPathUnits="userSpaceOnUse"
       id="clipPath81"><path
         d="m 65.30525,637.8184 97.26645,-175.5282 31.0725,0.103 97.4535,175.7849 -45.1163,-0.2466 -67.1541,-113.5883 -67.4215,113.4106 z"
         id="path79" /></clipPath><clipPath
       clipPathUnits="userSpaceOnUse"
       id="clipPath87"><path
         d="m 65.30525,637.8184 97.26645,-175.5282 31.0725,0.103 97.4535,175.7849 -45.1163,-0.2466 -67.1541,-113.5883 -67.4215,113.4106 z"
         id="path85" /></clipPath><linearGradient
       x1="0"
       y1="0"
       x2="100"
       y2="0"
       gradientUnits="userSpaceOnUse"
       gradientTransform="matrix(2.277925,0,0,-1.778879,64.30525,550.2341)"
       spreadMethod="pad"
       id="linearGradient101"><stop
         style="stop-opacity:1;stop-color:#56c1ff"
         offset="0"
         id="stop97" /><stop
         style="stop-opacity:1;stop-color:#0171bc"
         offset="1"
         id="stop99" /></linearGradient><clipPath
       clipPathUnits="userSpaceOnUse"
       id="clipPath111"><path
         d="m 307.4611,637.8563 57.4954,0.0428 45.4189,-77.6991 45.7073,77.5865 52.8961,-0.0128 -74.8788,-124.5549 -0.4879,-72.0241 -52.779,0.1227 0.7861,73.1668 z"
         id="path109" /></clipPath><clipPath
       clipPathUnits="userSpaceOnUse"
       id="clipPath117"><path
         d="m 307.4611,637.8563 57.4954,0.0428 45.4189,-77.6991 45.7073,77.5865 52.8961,-0.0128 -74.8788,-124.5549 -0.4879,-72.0241 -52.779,0.1227 0.7861,73.1668 z"
         id="path115" /></clipPath><linearGradient
       x1="0"
       y1="0"
       x2="100"
       y2="0"
       gradientUnits="userSpaceOnUse"
       gradientTransform="matrix(2.035177,0,0,-1.987044,306.4611,539.5469)"
       spreadMethod="pad"
       id="linearGradient131"><stop
         style="stop-opacity:1;stop-color:#56c1ff"
         offset="0"
         id="stop127" /><stop
         style="stop-opacity:1;stop-color:#0171bc"
         offset="1"
         id="stop129" /></linearGradient><clipPath
       clipPathUnits="userSpaceOnUse"
       id="clipPath141"><path
         d="m 291.8345,559.1373 0.1153,-117.4479 -52.0656,-0.003 -0.1665,26.1078 52.1168,91.3429 z"
         id="path139" /></clipPath><clipPath
       clipPathUnits="userSpaceOnUse"
       id="clipPath147"><path
         d="m 291.8345,559.1373 0.1153,-117.4479 -52.0656,-0.003 -0.1665,26.1078 52.1168,91.3429 z"
         id="path145" /></clipPath><linearGradient
       x1="0"
       y1="0"
       x2="100"
       y2="0"
       gradientUnits="userSpaceOnUse"
       gradientTransform="matrix(-0.5423212,0,0,-1.194506,292.9498,500.412)"
       spreadMethod="pad"
       id="linearGradient161"><stop
         style="stop-opacity:1;stop-color:#56c1ff"
         offset="0"
         id="stop157" /><stop
         style="stop-opacity:1;stop-color:#0171bc"
         offset="1"
         id="stop159" /></linearGradient><clipPath
       clipPathUnits="userSpaceOnUse"
       id="clipPath171"><path
         d="m 699.0195,606.2905 -32.6181,-31.2229 c -9.4709,9.1573 -21.16,15.5218 -33.7995,18.5693 -5.4191,1.3066 -10.965,1.9876 -16.5337,2.2241 -5.6115,0.2383 -11.2982,0.0325 -16.856,-1.3356 -6.3096,-1.5531 -12.1722,-4.5504 -17.1265,-8.7549 -14.0893,-11.7433 -21.9435,-29.3512 -21.2682,-47.6803 0.5029,-13.6485 5.7763,-26.6883 14.9022,-36.8495 7.6728,-7.1476 16.9466,-12.3525 27.0448,-15.1785 15.2246,-4.2606 31.4037,-2.9297 45.6606,3.6358 l 0.1698,10.5569 -0.2596,43.3206 47.7003,0.1098 -1.2141,-81.3013 c -22.8051,-14.0167 -49.0693,-21.391 -75.8374,-21.293 -26.4014,0.0967 -52.2663,7.4611 -74.7589,21.2859 -23.7195,18.7627 -37.5849,47.3204 -37.659,77.5636 -0.0779,31.7754 15.0219,61.6778 40.6387,80.4782 21.6169,12.7999 46.4637,19.101 71.5679,18.1495 27.3231,-1.0356 53.6381,-10.5908 75.26,-27.3275 z"
         id="path169" /></clipPath><clipPath
       clipPathUnits="userSpaceOnUse"
       id="clipPath177"><path
         d="m 699.0195,606.2905 -32.6181,-31.2229 c -9.4709,9.1573 -21.16,15.5218 -33.7995,18.5693 -5.4191,1.3066 -10.965,1.9876 -16.5337,2.2241 -5.6115,0.2383 -11.2982,0.0325 -16.856,-1.3356 -6.3096,-1.5531 -12.1722,-4.5504 -17.1265,-8.7549 -14.0893,-11.7433 -21.9435,-29.3512 -21.2682,-47.6803 0.5029,-13.6485 5.7763,-26.6883 14.9022,-36.8495 7.6728,-7.1476 16.9466,-12.3525 27.0448,-15.1785 15.2246,-4.2606 31.4037,-2.9297 45.6606,3.6358 l 0.1698,10.5569 -0.2596,43.3206 47.7003,0.1098 -1.2141,-81.3013 c -22.8051,-14.0167 -49.0693,-21.391 -75.8374,-21.293 -26.4014,0.0967 -52.2663,7.4611 -74.7589,21.2859 -23.7195,18.7627 -37.5849,47.3204 -37.659,77.5636 -0.0779,31.7754 15.0219,61.6778 40.6387,80.4782 21.6169,12.7999 46.4637,19.101 71.5679,18.1495 27.3231,-1.0356 53.6381,-10.5908 75.26,-27.3275 z"
         id="path175" /></clipPath><linearGradient
       x1="0"
       y1="0"
       x2="100"
       y2="0"
       gradientUnits="userSpaceOnUse"
       gradientTransform="matrix(1.944536,0,0,-1.99572,505.5659,539.8761)"
       spreadMethod="pad"
       id="linearGradient191"><stop
         style="stop-opacity:1;stop-color:#56c1ff"
         offset="0"
         id="stop187" /><stop
         style="stop-opacity:1;stop-color:#0171bc"
         offset="1"
         id="stop189" /></linearGradient><clipPath
       clipPathUnits="userSpaceOnUse"
       id="clipPath201"><path
         d="m 784.9692,638.0417 -1.2783,-153.1599 93.9626,-0.4447 -0.1759,-43.1109 -147.9599,0.1027 0.4112,196.579 z"
         id="path199" /></clipPath><clipPath
       clipPathUnits="userSpaceOnUse"
       id="clipPath207"><path
         d="m 784.9692,638.0417 -1.2783,-153.1599 93.9626,-0.4447 -0.1759,-43.1109 -147.9599,0.1027 0.4112,196.579 z"
         id="path205" /></clipPath><linearGradient
       x1="0"
       y1="0"
       x2="100"
       y2="0"
       gradientUnits="userSpaceOnUse"
       gradientTransform="matrix(1.501358,0,0,-1.987155,728.5177,539.684)"
       spreadMethod="pad"
       id="linearGradient221"><stop
         style="stop-opacity:1;stop-color:#56c1ff"
         offset="0"
         id="stop217" /><stop
         style="stop-opacity:1;stop-color:#0171bc"
         offset="1"
         id="stop219" /></linearGradient><clipPath
       clipPathUnits="userSpaceOnUse"
       id="clipPath231"><path
         d="m 952.4764,638.5682 0.0309,-115.4371 c -1.2104,-20.7739 15.284,-38.2972 36.0931,-38.3444 20.5616,-0.0467 37.0246,17.0372 36.2176,37.5829 l 0.01,116.1011 54.017,0.0528 -0.262,-125.16 c 0.131,-14.8884 -4.809,-29.3782 -14.006,-41.0867 -18.258,-23.242 -48.503,-31.713 -78.2495,-31.1067 -29.4163,0.5996 -59.0071,10.1363 -75.9317,33.948 -8.0977,11.3929 -12.2218,25.1337 -11.736,39.1028 l 0.49,124.3473 h 53.3276 z"
         id="path229" /></clipPath><clipPath
       clipPathUnits="userSpaceOnUse"
       id="clipPath237"><path
         d="m 952.4764,638.5682 0.0309,-115.4371 c -1.2104,-20.7739 15.284,-38.2972 36.0931,-38.3444 20.5616,-0.0467 37.0246,17.0372 36.2176,37.5829 l 0.01,116.1011 54.017,0.0528 -0.262,-125.16 c 0.131,-14.8884 -4.809,-29.3782 -14.006,-41.0867 -18.258,-23.242 -48.503,-31.713 -78.2495,-31.1067 -29.4163,0.5996 -59.0071,10.1363 -75.9317,33.948 -8.0977,11.3929 -12.2218,25.1337 -11.736,39.1028 l 0.49,124.3473 h 53.3276 z"
         id="path235" /></clipPath><linearGradient
       x1="0"
       y1="0"
       x2="100"
       y2="0"
       gradientUnits="userSpaceOnUse"
       gradientTransform="matrix(1.822234,0,0,-1.994283,897.6203,539.8541)"
       spreadMethod="pad"
       id="linearGradient251"><stop
         style="stop-opacity:1;stop-color:#56c1ff"
         offset="0"
         id="stop247" /><stop
         style="stop-opacity:1;stop-color:#0171bc"
         offset="1"
         id="stop249" /></linearGradient><clipPath
       clipPathUnits="userSpaceOnUse"
       id="clipPath261"><path
         d="m 1297.391,606.8225 -34.208,-32.5553 c -11.873,11.3835 -25.941,17.4235 -40.216,18.8162 -14.433,1.408 -29.422,-1.9104 -41.262,-11.0423 -12.4,-9.5645 -19.543,-25.0717 -19.199,-42.7135 0.549,-28.2043 19.127,-48.1843 41.778,-54.0889 10.417,-2.7157 21.529,-2.3645 31.905,1.1701 10.248,3.4904 19.777,10.0811 27.394,20.1145 l 33.718,-33.1403 c -21.275,-20.6228 -49.508,-32.5442 -79.127,-33.3564 -58.329,-1.5995 -108.716,39.8002 -109.917,96.0322 -0.735,34.4406 14.813,63.8096 39.204,82.1034 17.267,12.951 38.012,20.1379 59.155,21.5903 31.84,2.1872 64.577,-8.3837 90.775,-32.93 z"
         id="path259" /></clipPath><clipPath
       clipPathUnits="userSpaceOnUse"
       id="clipPath267"><path
         d="m 1297.391,606.8225 -34.208,-32.5553 c -11.873,11.3835 -25.941,17.4235 -40.216,18.8162 -14.433,1.408 -29.422,-1.9104 -41.262,-11.0423 -12.4,-9.5645 -19.543,-25.0717 -19.199,-42.7135 0.549,-28.2043 19.127,-48.1843 41.778,-54.0889 10.417,-2.7157 21.529,-2.3645 31.905,1.1701 10.248,3.4904 19.777,10.0811 27.394,20.1145 l 33.718,-33.1403 c -21.275,-20.6228 -49.508,-32.5442 -79.127,-33.3564 -58.329,-1.5995 -108.716,39.8002 -109.917,96.0322 -0.735,34.4406 14.813,63.8096 39.204,82.1034 17.267,12.951 38.012,20.1379 59.155,21.5903 31.84,2.1872 64.577,-8.3837 90.775,-32.93 z"
         id="path265" /></clipPath><linearGradient
       x1="0"
       y1="0"
       x2="100"
       y2="0"
       gradientUnits="userSpaceOnUse"
       gradientTransform="matrix(1.911584,0,0,-2.020511,1107.232,540.0074)"
       spreadMethod="pad"
       id="linearGradient281"><stop
         style="stop-opacity:1;stop-color:#56c1ff"
         offset="0"
         id="stop277" /><stop
         style="stop-opacity:1;stop-color:#0171bc"
         offset="1"
         id="stop279" /></linearGradient><clipPath
       clipPathUnits="userSpaceOnUse"
       id="clipPath291"><path
         d="m 1352.204,608.5381 c -1.429,-5.9319 -2.192,-12.0045 -2.277,-18.1055 -0.083,-5.9638 0.484,-11.9188 1.691,-17.7599 1.814,-11.5394 6.721,-22.3713 14.201,-31.3436 8.298,-9.9542 19.391,-17.1914 31.844,-20.7766 9.13,2.6659 17.541,7.3542 24.611,13.7167 10.848,9.7639 18.055,22.9339 20.365,37.3498 1.598,5.9413 2.409,12.0668 2.412,18.2193 0,6.2388 -0.824,12.4503 -2.461,18.4707 -6.634,18.5871 -23.983,31.2077 -43.71,31.7969 -20.731,0.6192 -39.532,-12.0965 -46.676,-31.5678 z"
         id="path289" /></clipPath><clipPath
       clipPathUnits="userSpaceOnUse"
       id="clipPath297"><path
         d="m 1352.204,608.5381 c -1.429,-5.9319 -2.192,-12.0045 -2.277,-18.1055 -0.083,-5.9638 0.484,-11.9188 1.691,-17.7599 1.814,-11.5394 6.721,-22.3713 14.201,-31.3436 8.298,-9.9542 19.391,-17.1914 31.844,-20.7766 9.13,2.6659 17.541,7.3542 24.611,13.7167 10.848,9.7639 18.055,22.9339 20.365,37.3498 1.598,5.9413 2.409,12.0668 2.412,18.2193 0,6.2388 -0.824,12.4503 -2.461,18.4707 -6.634,18.5871 -23.983,31.2077 -43.71,31.7969 -20.731,0.6192 -39.532,-12.0965 -46.676,-31.5678 z"
         id="path295" /></clipPath><linearGradient
       x1="0"
       y1="0"
       x2="100"
       y2="0"
       gradientUnits="userSpaceOnUse"
       gradientTransform="matrix(0.9713185,0,0,-1.21575,1348.919,580.34)"
       spreadMethod="pad"
       id="linearGradient311"><stop
         style="stop-opacity:1;stop-color:#56c1ff"
         offset="0"
         id="stop307" /><stop
         style="stop-opacity:1;stop-color:#0171bc"
         offset="1"
         id="stop309" /></linearGradient><clipPath
       clipPathUnits="userSpaceOnUse"
       id="clipPath321"><path
         d="m 1431.702,523.4155 -35.547,-32.827 c -6.295,4.6572 -12.216,9.7995 -17.709,15.38 -2.998,3.0461 -5.944,6.2902 -8.761,9.4606 -2.983,3.3576 -5.964,6.7104 -10.296,8.1136 -0.974,0.3157 -1.985,0.5086 -3.008,0.5649 -8.956,0.4928 -15.825,-7.8341 -13.639,-16.533 5.382,-2.6964 9.927,-6.8085 13.148,-11.8943 2.33,-3.6801 3.907,-7.7859 4.639,-12.0797 0.676,-2.1032 1.169,-4.261 1.473,-6.4491 0.304,-2.1879 0.419,-4.3979 0.351,-6.6058 -0.149,-4.9038 -1.19,-9.7394 -3.071,-14.2704 l -17.402,-0.1441 -0.014,8.6866 8.262,0.0314 c 1.794,5.8822 1.976,12.1411 0.47,18.1087 -1.583,6.273 -5.539,11.9667 -11.567,11.9879 -6.175,0.0217 -10.267,-5.9505 -11.926,-12.485 -1.446,-5.6915 -1.638,-11.6288 -0.564,-17.4019 l 7.532,-0.0627 -0.188,-8.7566 -13.129,-0.0799 c -1.932,0.8482 -3.514,2.3321 -4.485,4.2049 -0.456,0.879 -0.763,1.8235 -1.025,2.7778 -2.569,9.3754 -0.807,19.3013 3.793,27.8745 3.652,6.8075 8.973,12.576 15.464,16.7649 2.751,2.4902 2.768,6.8058 0.037,9.3179 -2.78,2.557 -7.167,2.1243 -9.394,-0.9266 -8.148,-8.1789 -14.092,-17.6698 -17.906,-27.8627 -4.513,-12.0623 -6.314,-26.1873 1.467,-37.952 3.882,-5.87 9.999,-9.9224 16.918,-11.2082 l 141.337,0.2396 c 4.732,1.2394 9.019,3.7932 12.363,7.3642 7.802,8.3339 9.714,19.4162 8.475,30.2188 -1.241,10.8144 -5.506,21.7943 -13.183,30.6749 -2.435,2.8172 -5.159,5.3697 -8.105,7.648 -1.378,1.0657 -2.806,2.0724 -4.364,2.8529 -1.318,0.6603 -2.799,1.1434 -4.169,0.62 -2.328,-0.8894 -2.954,-3.7697 -2.162,-6.3261 0.734,-2.3692 2.393,-4.2869 4.221,-5.959 2.479,-2.2667 5.318,-4.1679 7.36,-6.8419 0.857,-1.1218 1.554,-2.3589 2.029,-3.6883 1.79,-5.0115 0.384,-10.5576 -3.25,-14.4733 -4.207,-4.5322 -10.654,-6.2252 -16.545,-4.3448 -7.134,1.8246 -11.669,8.824 -10.419,16.0808 0.917,5.3214 4.907,9.3958 7.278,14.2105 2.879,5.8462 2.98,12.9703 -1.857,16.9077 -3.878,3.1558 -9.54,2.7535 -12.932,-0.9187 z"
         id="path319" /></clipPath><clipPath
       clipPathUnits="userSpaceOnUse"
       id="clipPath327"><path
         d="m 1431.702,523.4155 -35.547,-32.827 c -6.295,4.6572 -12.216,9.7995 -17.709,15.38 -2.998,3.0461 -5.944,6.2902 -8.761,9.4606 -2.983,3.3576 -5.964,6.7104 -10.296,8.1136 -0.974,0.3157 -1.985,0.5086 -3.008,0.5649 -8.956,0.4928 -15.825,-7.8341 -13.639,-16.533 5.382,-2.6964 9.927,-6.8085 13.148,-11.8943 2.33,-3.6801 3.907,-7.7859 4.639,-12.0797 0.676,-2.1032 1.169,-4.261 1.473,-6.4491 0.304,-2.1879 0.419,-4.3979 0.351,-6.6058 -0.149,-4.9038 -1.19,-9.7394 -3.071,-14.2704 l -17.402,-0.1441 -0.014,8.6866 8.262,0.0314 c 1.794,5.8822 1.976,12.1411 0.47,18.1087 -1.583,6.273 -5.539,11.9667 -11.567,11.9879 -6.175,0.0217 -10.267,-5.9505 -11.926,-12.485 -1.446,-5.6915 -1.638,-11.6288 -0.564,-17.4019 l 7.532,-0.0627 -0.188,-8.7566 -13.129,-0.0799 c -1.932,0.8482 -3.514,2.3321 -4.485,4.2049 -0.456,0.879 -0.763,1.8235 -1.025,2.7778 -2.569,9.3754 -0.807,19.3013 3.793,27.8745 3.652,6.8075 8.973,12.576 15.464,16.7649 2.751,2.4902 2.768,6.8058 0.037,9.3179 -2.78,2.557 -7.167,2.1243 -9.394,-0.9266 -8.148,-8.1789 -14.092,-17.6698 -17.906,-27.8627 -4.513,-12.0623 -6.314,-26.1873 1.467,-37.952 3.882,-5.87 9.999,-9.9224 16.918,-11.2082 l 141.337,0.2396 c 4.732,1.2394 9.019,3.7932 12.363,7.3642 7.802,8.3339 9.714,19.4162 8.475,30.2188 -1.241,10.8144 -5.506,21.7943 -13.183,30.6749 -2.435,2.8172 -5.159,5.3697 -8.105,7.648 -1.378,1.0657 -2.806,2.0724 -4.364,2.8529 -1.318,0.6603 -2.799,1.1434 -4.169,0.62 -2.328,-0.8894 -2.954,-3.7697 -2.162,-6.3261 0.734,-2.3692 2.393,-4.2869 4.221,-5.959 2.479,-2.2667 5.318,-4.1679 7.36,-6.8419 0.857,-1.1218 1.554,-2.3589 2.029,-3.6883 1.79,-5.0115 0.384,-10.5576 -3.25,-14.4733 -4.207,-4.5322 -10.654,-6.2252 -16.545,-4.3448 -7.134,1.8246 -11.669,8.824 -10.419,16.0808 0.917,5.3214 4.907,9.3958 7.278,14.2105 2.879,5.8462 2.98,12.9703 -1.857,16.9077 -3.878,3.1558 -9.54,2.7535 -12.932,-0.9187 z"
         id="path325" /></clipPath><linearGradient
       x1="0"
       y1="0"
       x2="100"
       y2="0"
       gradientUnits="userSpaceOnUse"
       gradientTransform="matrix(1.867845,0,0,-0.8930912,1302.362,482.8047)"
       spreadMethod="pad"
       id="linearGradient341"><stop
         style="stop-opacity:1;stop-color:#56c1ff"
         offset="0"
         id="stop337" /><stop
         style="stop-opacity:1;stop-color:#0171bc"
         offset="1"
         id="stop339" /></linearGradient><clipPath
       clipPathUnits="userSpaceOnUse"
       id="clipPath351"><path
         d="M 0,0 H 1920 V 1080 H 0 Z"
         id="path349" /></clipPath><clipPath
       clipPathUnits="userSpaceOnUse"
       id="clipPath361"><path
         d="m 1458.361,497.4717 c 2.376,-2.3764 2.376,-6.2294 0,-8.6059 -2.377,-2.3764 -6.23,-2.3764 -8.606,0 -2.377,2.3765 -2.377,6.2295 0,8.6059 2.376,2.3765 6.229,2.3765 8.606,0 z"
         id="path359" /></clipPath><clipPath
       clipPathUnits="userSpaceOnUse"
       id="clipPath367"><path
         d="m 1458.361,497.4717 c 2.376,-2.3764 2.376,-6.2294 0,-8.6059 -2.377,-2.3764 -6.23,-2.3764 -8.606,0 -2.377,2.3765 -2.377,6.2295 0,8.6059 2.376,2.3765 6.229,2.3765 8.606,0 z"
         id="path365" /></clipPath><linearGradient
       x1="0"
       y1="0"
       x2="100"
       y2="0"
       gradientUnits="userSpaceOnUse"
       gradientTransform="matrix(0.1417059,0,0,-0.1417059,1446.973,493.1688)"
       spreadMethod="pad"
       id="linearGradient381"><stop
         style="stop-opacity:1;stop-color:#56c1ff"
         offset="0"
         id="stop377" /><stop
         style="stop-opacity:1;stop-color:#0171bc"
         offset="1"
         id="stop379" /></linearGradient><clipPath
       clipPathUnits="userSpaceOnUse"
       id="clipPath391"><path
         d="m 1665.626,624.5015 -13.576,-38.5777 c -6.165,2.4765 -12.436,4.6676 -18.806,6.5565 -13.309,3.9471 -27.549,6.1945 -41.011,6.3789 -6.25,0.0856 -12.355,-0.3602 -17.731,-3.745 -7.478,-4.7083 -10.828,-14.0163 -6.824,-21.6481 3.631,-6.9219 11.794,-9.2125 19.449,-11.0391 12.304,-2.936 24.573,-6.028 36.942,-8.6793 9.573,-2.0517 19.189,-3.8545 27.649,-8.9524 17.674,-10.6504 25.168,-30.462 22.176,-51.4169 -2.363,-16.5488 -11.406,-31.424 -25.005,-41.1463 -21.781,-10.4892 -45.865,-15.2883 -70.004,-13.9495 -24.82,1.3767 -48.855,9.1926 -69.738,22.6785 2.694,6.3882 5.377,12.7814 8.048,19.1794 2.844,6.8118 5.675,13.629 8.492,20.4517 10.953,-7.7154 23.063,-13.5658 35.919,-17.3387 12.63,-3.7066 26.249,-4.4598 38.315,-3.5542 6.395,0.4799 12.426,1.6638 16.737,6.5704 3.935,4.478 4.614,10.8911 1.889,16.1949 -3.603,7.01 -11.74,9.4832 -19.434,11.4476 -8.526,2.1765 -17.052,4.5942 -25.587,6.726 -9.994,2.4961 -20.061,4.6345 -29.446,8.9885 -11.248,5.2179 -20.909,13.3282 -27.997,23.5023 -4.611,9.4987 -6.481,20.095 -5.4,30.5981 1.36,13.2229 7.285,25.5585 16.757,34.8852 6.183,5.2993 13.038,9.7598 20.387,13.2659 23.738,11.3236 50.757,12.2352 76.521,6.947 14.329,-2.9409 28.207,-7.7569 41.278,-14.3237 z"
         id="path389" /></clipPath><clipPath
       clipPathUnits="userSpaceOnUse"
       id="clipPath397"><path
         d="m 1665.626,624.5015 -13.576,-38.5777 c -6.165,2.4765 -12.436,4.6676 -18.806,6.5565 -13.309,3.9471 -27.549,6.1945 -41.011,6.3789 -6.25,0.0856 -12.355,-0.3602 -17.731,-3.745 -7.478,-4.7083 -10.828,-14.0163 -6.824,-21.6481 3.631,-6.9219 11.794,-9.2125 19.449,-11.0391 12.304,-2.936 24.573,-6.028 36.942,-8.6793 9.573,-2.0517 19.189,-3.8545 27.649,-8.9524 17.674,-10.6504 25.168,-30.462 22.176,-51.4169 -2.363,-16.5488 -11.406,-31.424 -25.005,-41.1463 -21.781,-10.4892 -45.865,-15.2883 -70.004,-13.9495 -24.82,1.3767 -48.855,9.1926 -69.738,22.6785 2.694,6.3882 5.377,12.7814 8.048,19.1794 2.844,6.8118 5.675,13.629 8.492,20.4517 10.953,-7.7154 23.063,-13.5658 35.919,-17.3387 12.63,-3.7066 26.249,-4.4598 38.315,-3.5542 6.395,0.4799 12.426,1.6638 16.737,6.5704 3.935,4.478 4.614,10.8911 1.889,16.1949 -3.603,7.01 -11.74,9.4832 -19.434,11.4476 -8.526,2.1765 -17.052,4.5942 -25.587,6.726 -9.994,2.4961 -20.061,4.6345 -29.446,8.9885 -11.248,5.2179 -20.909,13.3282 -27.997,23.5023 -4.611,9.4987 -6.481,20.095 -5.4,30.5981 1.36,13.2229 7.285,25.5585 16.757,34.8852 6.183,5.2993 13.038,9.7598 20.387,13.2659 23.738,11.3236 50.757,12.2352 76.521,6.947 14.329,-2.9409 28.207,-7.7569 41.278,-14.3237 z"
         id="path395" /></clipPath><linearGradient
       x1="0"
       y1="0"
       x2="100"
       y2="0"
       gradientUnits="userSpaceOnUse"
       gradientTransform="matrix(1.673879,0,0,-2.058739,1508.147,540)"
       spreadMethod="pad"
       id="linearGradient411"><stop
         style="stop-opacity:1;stop-color:#56c1ff"
         offset="0"
         id="stop407" /><stop
         style="stop-opacity:1;stop-color:#0171bc"
         offset="1"
         id="stop409" /></linearGradient><linearGradient
       x1="0"
       y1="0"
       x2="100"
       y2="0"
       gradientUnits="userSpaceOnUse"
       gradientTransform="matrix(1.568667,0,0,-0.4503494,1699.795,616.6742)"
       spreadMethod="pad"
       id="linearGradient429"><stop
         style="stop-opacity:1;stop-color:#56c1ff"
         offset="0"
         id="stop425" /><stop
         style="stop-opacity:1;stop-color:#0171bc"
         offset="1"
         id="stop427" /></linearGradient><linearGradient
       x1="0"
       y1="0"
       x2="100"
       y2="0"
       gradientUnits="userSpaceOnUse"
       gradientTransform="matrix(1.568667,0,0,-0.4503494,1699.795,541.4325)"
       spreadMethod="pad"
       id="linearGradient447"><stop
         style="stop-opacity:1;stop-color:#56c1ff"
         offset="0"
         id="stop443" /><stop
         style="stop-opacity:1;stop-color:#0171bc"
         offset="1"
         id="stop445" /></linearGradient><linearGradient
       x1="0"
       y1="0"
       x2="100"
       y2="0"
       gradientUnits="userSpaceOnUse"
       gradientTransform="matrix(1.568667,0,0,-0.4503494,1699.795,462.6443)"
       spreadMethod="pad"
       id="linearGradient465"><stop
         style="stop-opacity:1;stop-color:#56c1ff"
         offset="0"
         id="stop461" /><stop
         style="stop-opacity:1;stop-color:#0171bc"
         offset="1"
         id="stop463" /></linearGradient></defs><g
     id="g31"
     transform="matrix(1.3333333,0,0,-1.3333333,0,1440)"><g
       id="g33"
       style="fill:#ffffff" /><g
       id="g45"
       style="fill:#ffffff"><g
         id="g47"
         clip-path="url(#clipPath51)"
         style="fill:#ffffff"><g
           id="g53"
           clip-path="url(#clipPath57)"
           style="fill:#ffffff"><g
             id="g59"
             style="fill:#ffffff"><g
               id="g65"
               style="fill:#ffffff"><path
                 d="M 0,0 H 1920 V 1080 H 0 Z"
                 style="fill:#ffffff;stroke:none"
                 id="path73" /></g></g></g></g></g><g
       id="g75"
       style="fill:#ffffff"><g
         id="g77"
         clip-path="url(#clipPath81)"
         style="fill:#ffffff"><g
           id="g83"
           clip-path="url(#clipPath87)"
           style="fill:#ffffff"><g
             id="g89"
             style="fill:#ffffff"><g
               id="g95"
               style="fill:#ffffff"><path
                 d="M 0,0 H 1920 V 1080 H 0 Z"
                 style="fill:#ffffff;stroke:none"
                 id="path103" /></g></g></g></g></g><g
       id="g105"
       style="fill:#ffffff"><g
         id="g107"
         clip-path="url(#clipPath111)"
         style="fill:#ffffff"><g
           id="g113"
           clip-path="url(#clipPath117)"
           style="fill:#ffffff"><g
             id="g119"
             style="fill:#ffffff"><g
               id="g125"
               style="fill:#ffffff"><path
                 d="M 0,0 H 1920 V 1080 H 0 Z"
                 style="fill:#ffffff;stroke:none"
                 id="path133" /></g></g></g></g></g><g
       id="g135"
       style="fill:#ffffff"><g
         id="g137"
         clip-path="url(#clipPath141)"
         style="fill:#ffffff"><g
           id="g143"
           clip-path="url(#clipPath147)"
           style="fill:#ffffff"><g
             id="g149"
             style="fill:#ffffff"><g
               id="g155"
               style="fill:#ffffff"><path
                 d="M 0,0 H 1920 V 1080 H 0 Z"
                 style="fill:#ffffff;stroke:none"
                 id="path163" /></g></g></g></g></g><g
       id="g165"
       style="fill:#ffffff"><g
         id="g167"
         clip-path="url(#clipPath171)"
         style="fill:#ffffff"><g
           id="g173"
           clip-path="url(#clipPath177)"
           style="fill:#ffffff"><g
             id="g179"
             style="fill:#ffffff"><g
               id="g185"
               style="fill:#ffffff"><path
                 d="M 0,0 H 1920 V 1080 H 0 Z"
                 style="fill:#ffffff;stroke:none"
                 id="path193" /></g></g></g></g></g><g
       id="g195"
       style="fill:#ffffff"><g
         id="g197"
         clip-path="url(#clipPath201)"
         style="fill:#ffffff"><g
           id="g203"
           clip-path="url(#clipPath207)"
           style="fill:#ffffff"><g
             id="g209"
             style="fill:#ffffff"><g
               id="g215"
               style="fill:#ffffff"><path
                 d="M 0,0 H 1920 V 1080 H 0 Z"
                 style="fill:#ffffff;stroke:none"
                 id="path223" /></g></g></g></g></g><g
       id="g225"
       style="fill:#ffffff"><g
         id="g227"
         clip-path="url(#clipPath231)"
         style="fill:#ffffff"><g
           id="g233"
           clip-path="url(#clipPath237)"
           style="fill:#ffffff"><g
             id="g239"
             style="fill:#ffffff"><g
               id="g245"
               style="fill:#ffffff"><path
                 d="M 0,0 H 1920 V 1080 H 0 Z"
                 style="fill:#ffffff;stroke:none"
                 id="path253" /></g></g></g></g></g><g
       id="g255"
       style="fill:#ffffff"><g
         id="g257"
         clip-path="url(#clipPath261)"
         style="fill:#ffffff"><g
           id="g263"
           clip-path="url(#clipPath267)"
           style="fill:#ffffff"><g
             id="g269"
             style="fill:#ffffff"><g
               id="g275"
               style="fill:#ffffff"><path
                 d="M 0,0 H 1920 V 1080 H 0 Z"
                 style="fill:#ffffff;stroke:none"
                 id="path283" /></g></g></g></g></g><g
       id="g285"
       style="fill:#ffffff"><g
         id="g287"
         clip-path="url(#clipPath291)"
         style="fill:#ffffff"><g
           id="g293"
           clip-path="url(#clipPath297)"
           style="fill:#ffffff"><g
             id="g299"
             style="fill:#ffffff"><g
               id="g305"
               style="fill:#ffffff"><path
                 d="M 0,0 H 1920 V 1080 H 0 Z"
                 style="fill:#ffffff;stroke:none"
                 id="path313" /></g></g></g></g></g><g
       id="g315"
       style="fill:#ffffff"><g
         id="g317"
         clip-path="url(#clipPath321)"
         style="fill:#ffffff"><g
           id="g323"
           clip-path="url(#clipPath327)"
           style="fill:#ffffff"><g
             id="g329"
             style="fill:#ffffff"><g
               id="g335"
               style="fill:#ffffff"><path
                 d="M 0,0 H 1920 V 1080 H 0 Z"
                 style="fill:#ffffff;stroke:none"
                 id="path343" /></g></g></g></g></g><g
       id="g345"
       style="fill:#36a2e5;fill-opacity:1"><g
         id="g347"
         clip-path="url(#clipPath351)"
         style="fill:#36a2e5;fill-opacity:1"><path
           d="m 1433.658,482.7439 v -10.8064 l 11.393,-0.0128 -0.033,-10.7229 -11.282,-0.0475 -0.064,-10.77 -12.727,-0.0289 0.067,10.9572 -11.369,-0.0581 0.067,10.8208 11.383,0.0137 -0.045,10.7093 12.615,-0.0544 z"
           style="fill:#36a2e5;fill-opacity:1;fill-rule:nonzero;stroke:none"
           id="path353" /></g></g><g
       id="g355"
       style="fill:#ffffff"><g
         id="g357"
         clip-path="url(#clipPath361)"
         style="fill:#ffffff"><g
           id="g363"
           clip-path="url(#clipPath367)"
           style="fill:#ffffff"><g
             id="g369"
             style="fill:#ffffff"><g
               id="g375"
               style="fill:#ffffff"><path
                 d="M 0,0 H 1920 V 1080 H 0 Z"
                 style="fill:#ffffff;stroke:none"
                 id="path383" /></g></g></g></g></g><g
       id="g385"
       style="fill:#ffffff"><g
         id="g387"
         clip-path="url(#clipPath391)"
         style="fill:#ffffff"><g
           id="g393"
           clip-path="url(#clipPath397)"
           style="fill:#ffffff"><g
             id="g399"
             style="fill:#ffffff"><g
               id="g405"
               style="fill:#ffffff"><path
                 d="M 0,0 H 1920 V 1080 H 0 Z"
                 style="fill:#ffffff;stroke:none"
                 id="path413" /></g></g></g></g></g><g
       id="g415"
       style="fill:#ffffff"><g
         id="g417"
         style="fill:#ffffff"><g
           id="g423"
           style="fill:#ffffff"><path
             d="m 1700.795,595.1568 h 154.8667 v 43.03494 H 1700.795 Z"
             style="fill:#ffffff;stroke:none"
             id="path431" /></g></g></g><g
       id="g433"
       style="fill:#ffffff"><g
         id="g435"
         style="fill:#ffffff"><g
           id="g441"
           style="fill:#ffffff"><path
             d="m 1700.795,519.9151 h 154.8667 v 43.03494 H 1700.795 Z"
             style="fill:#ffffff;stroke:none"
             id="path449" /></g></g></g><g
       id="g451"
       style="fill:#ffffff"><g
         id="g453"
         style="fill:#ffffff"><g
           id="g459"
           style="fill:#ffffff"><path
             d="m 1700.795,441.1268 h 154.8667 v 43.03494 H 1700.795 Z"
             style="fill:#ffffff;stroke:none"
             id="path467" /></g></g></g></g></svg>
